<?xml version="1.0" encoding="utf-8"?>
<!-- Generator: Adobe Illustrator 23.0.1, SVG Export Plug-In . SVG Version: 6.00 Build 0)  -->
<svg version="1.1" id="Layer_1" xmlns="http://www.w3.org/2000/svg" xmlns:xlink="http://www.w3.org/1999/xlink" x="0px" y="0px"
	 viewBox="0 0 435 434.8" style="enable-background:new 0 0 435 434.8;" xml:space="preserve">
<style type="text/css">
	.st0{fill:url(#SVGID_1_);}
	.st1{fill:#FFFFFF;}
</style>
<g>
	<linearGradient id="SVGID_1_" gradientUnits="userSpaceOnUse" x1="217.264" y1="11.3116" x2="217.4576" y2="422.7367">
		<stop  offset="0" style="stop-color:#CC7686"/>
		<stop  offset="1" style="stop-color:#38BCB9"/>
	</linearGradient>
	<circle class="st0" cx="217.4" cy="215.3" r="205.7"/>
	<g id="Wrgbpw.tif">
		<g>
			<path class="st1" d="M90.5,329.6c0-13,0-26.1,0.1-39.1c0.1-12.6,3.6-23.8,13.5-32.3c5.8-5,12.5-8.1,19.6-10.5
				c12.7-4.3,25.8-6.1,39-7.9c5.6-0.8,11.2-1.5,17.5-2.4c-1.1-1.1-1.8-1.7-2.4-2.3c-9.2-9.1-16-19.4-17.5-32.6
				c-0.1-0.7-0.6-1.5-1.2-1.8c-9.3-4.9-12-13.1-10.7-22.7c0.7-4.9,0.3-9.6-0.3-14.3c-1.3-9.7-2.9-19.3-4-29
				c-1.5-13.2,3.5-24,13.2-32.7c8.3-7.5,18.4-11.6,29-14.5c2.2-0.6,4.5-1.6,6.3-3c15.1-11.4,35-11.3,50,0.3c1.5,1.1,3.3,2,5.1,2.5
				c8.7,2.3,17.1,5.4,24.6,10.6c14.5,10.1,20.9,23.6,17.9,41.4c-1.8,10.9-3,22-4.4,33c-0.2,1.2,0.2,2.4,0.5,3.6
				c1.4,6.4,0.6,12.5-2.9,18c-1.4,2.2-3.3,4.3-5.5,5.6c-2.3,1.3-3.3,2.7-3.7,5.4c-1.8,11.5-7.9,20.7-15.8,28.9
				c-1.1,1.1-2.2,2.2-3.8,3.7c6.3,0.9,11.9,1.6,17.5,2.4c14.4,2,28.8,3.8,42.5,9c11,4.2,20.6,10.3,25.5,21.5c1.8,4,2.5,8.6,3.7,12.9
				c0.2,0.8,0.4,1.7,0.5,2.5c0,14.6,0,29.3,0,43.9C259.6,329.6,175.1,329.6,90.5,329.6z M335.6,321c0.1-0.4,0.2-0.6,0.2-0.9
				c0-10.8,0.2-21.7-0.1-32.5c-0.3-9.2-3.6-17.3-10.9-23.4c-7.5-6.3-16.5-9.5-25.9-11.2c-17.4-3.2-34.9-5.7-52.3-8.5
				c-0.6-0.1-1.5,0-2,0.3c-8.4,5.1-17.1,9.3-27.1,10.2c0,22.1,0,44,0,66C256.9,321,296.2,321,335.6,321z M208.8,254.3
				c-6.4-3.3-12.5-6.4-18.6-9.4c-0.6-0.3-1.5-0.4-2.3-0.3c-12.9,1.9-25.8,3.7-38.6,5.7c-10.4,1.6-20.8,3.8-30.4,8.4
				c-13.1,6.3-19.9,16.6-20,31.2c-0.1,9.7,0,19.4,0,29.1c0,0.7,0.1,1.3,0.2,2c36.7,0,73.2,0,109.7,0
				C208.8,298.4,208.8,276.1,208.8,254.3z M168.4,201.9c16.2-5.2,32.2-8.7,48.8-8.7c16.7,0,32.8,3.5,48.9,8.7
				c0.1-1.6,0.3-2.9,0.3-4.1c0.2-2.9,1.4-4.3,4.4-4.5c3.3-0.2,5.8-1.9,6.4-5c0.7-3.8,1-7.8,0.6-11.7c-0.5-4.2-3-7.1-7.7-7.2
				c-0.9,0-1.8-0.6-2.7-1c-9.4-4.6-18.8-9.3-28.1-14c-1.4-0.7-2.4-0.7-3.9,0c-12.1,6-24.2,6-36.3,0c-1.4-0.7-2.5-0.7-3.9,0
				c-9.1,4.6-18.2,9.2-27.4,13.6c-1.5,0.7-3.1,1.2-4.7,1.5c-2.4,0.5-4.3,1.5-5.3,3.8c-1.8,4-2.1,8.1-1.3,12.4
				c0.9,4.8,2.9,6.7,7.8,7.4c2.3,0.4,3.6,1.7,3.8,4.1C168.3,198.7,168.3,200.1,168.4,201.9z M264.2,210.3
				c-31.3-11.4-62.4-11.4-93.8,0c0.6,1.5,1.1,2.8,1.7,4c7.6,15,20,24.6,35.5,30.2c3.8,1.4,8.5,2.4,12.3,1.7
				c19.3-3.9,33.7-14.8,42.8-32.3C263.4,212.7,263.7,211.5,264.2,210.3z M217.3,150.5c18,0.2,33-13.4,33.2-32.7
				c0.2-18.9-14-33.4-32.7-33.5c-19-0.1-33.4,13.9-33.6,32.9C183.9,135.9,198.2,150.3,217.3,150.5z M278.3,163.1
				c0.1-0.5,0.3-0.8,0.4-1.3c1.1-8.4,2-16.8,3.3-25.1c1.1-6.7,0.6-13.1-2.7-19.2c-5.4-10.1-14.3-15.7-24.8-19.3
				c-0.1,0-0.3,0.2-0.3,0.2c8.6,18.6,5.1,35-9.1,49.7C256.3,153,266.4,159.8,278.3,163.1z M180.7,97.9c-8.2,3-15.3,6.7-20.8,13
				c-5.9,6.8-8.8,14.5-7.5,23.6c0.9,6.3,1.7,12.6,2.6,18.8c0.5,3.3,1,6.5,1.6,10.7c11.3-5.4,22.1-10.6,33-15.8
				C175.3,133.2,171.9,116.9,180.7,97.9z"/>
			<path class="st1" d="M248.1,282.7c0,4.8-4.7,9.5-9.5,9.5c-4.6,0-9.4-4.7-9.5-9.3c-0.1-4.6,4.8-9.6,9.5-9.7
				C243.2,273.1,248.1,278,248.1,282.7z"/>
			<path class="st1" d="M143,288.6c0-2.1,0-4.3,0-6.6c0-2.1,0.9-3.2,2.5-3.2c1.6,0,2.5,1.1,2.6,3.1c0,2.3,0,4.5,0,7c2.6,0,5,0,7.5,0
				c1.4,0,2.3,0.7,2.6,2.1c0.2,1.2-0.3,2.2-1.5,2.7c-0.5,0.2-1.1,0.3-1.7,0.3c-2.3,0-4.5,0-6.9,0c0,2.4,0,4.7,0,6.9
				c0,2-0.9,3.2-2.5,3.2c-1.6,0-2.5-1.2-2.5-3.2c0-2.3,0-4.5,0-7c-2.5,0-4.9,0-7.4,0c-1.8,0-2.9-1.2-2.8-2.7
				c0.1-1.4,1.2-2.3,2.7-2.3c2.4,0,4.8,0,7.1-0.1C142.7,288.9,142.8,288.8,143,288.6z"/>
			<path class="st1" d="M238.4,166.4c2.5,0.1,5.1,0.1,7.6,0.4c5.1,0.6,8.1,4.6,7.4,9.7c-0.3,2.1-1.5,3.4-3.6,3.6
				c-2.2,0.2-4-0.7-4.4-2.9c-0.4-2-1.4-2.4-3.1-2.4c-2.6,0-5.3,0-7.9,0.1c-1.4,0-2.2,0.4-2.5,2c-0.4,2.3-2.1,3.4-4.5,3.2
				c-2.4-0.3-3.5-1.8-3.7-4.1c-0.4-4.8,2.6-8.6,7.5-9.2C233.6,166.5,236,166.6,238.4,166.4z"/>
			<path class="st1" d="M196.2,166.4c2.3,0.1,4.7,0.1,7.2,0.4c4.9,0.6,7.8,4.3,7.5,9.2c-0.2,2.3-1.3,3.9-3.7,4.1
				c-2.3,0.3-4.1-0.8-4.5-3.1c-0.3-1.8-1.3-2.1-2.7-2.1c-2.7,0-5.5,0-8.2,0c-1.4,0-2.2,0.4-2.5,2c-0.4,2.3-2.1,3.4-4.4,3.2
				c-2.4-0.3-3.5-1.8-3.7-4.1c-0.3-5.2,2.5-8.6,7.7-9.2C191.2,166.5,193.6,166.6,196.2,166.4z"/>
			<path class="st1" d="M237.5,117.4c0,10.5-9.6,20.2-20.1,20.2c-10.5,0-20.1-9.6-20.2-20.1c0-10.6,9.4-20.2,20-20.3
				C227.7,97,237.4,106.7,237.5,117.4z M205.6,117.2c0,7.3,4.6,12,11.8,12c7.1,0,11.7-4.7,11.8-11.8c0-7.2-4.7-12-11.9-11.9
				C210.3,105.6,205.6,110.3,205.6,117.2z"/>
		</g>
	</g>
</g>
</svg>
