<?xml version="1.0" encoding="utf-8"?>
<!-- Generator: Adobe Illustrator 23.0.1, SVG Export Plug-In . SVG Version: 6.00 Build 0)  -->
<svg version="1.1" id="Layer_1" xmlns="http://www.w3.org/2000/svg" xmlns:xlink="http://www.w3.org/1999/xlink" x="0px" y="0px"
	 viewBox="0 0 435 434.8" style="enable-background:new 0 0 435 434.8;" xml:space="preserve">
<style type="text/css">
	.st0{fill:url(#SVGID_1_);}
	.st1{fill:#FFFFFF;}
</style>
<g>
	<g>
		<g>
			<g>
				<g>
					<linearGradient id="SVGID_1_" gradientUnits="userSpaceOnUse" x1="217.264" y1="11.3116" x2="217.4576" y2="422.7367">
						<stop  offset="0" style="stop-color:#CC7686"/>
						<stop  offset="1" style="stop-color:#38BCB9"/>
					</linearGradient>
					<circle class="st0" cx="217.4" cy="215.3" r="205.7"/>
				</g>
			</g>
		</g>
	</g>
	<g id="ZMZnVQ.tif">
		<g>
			<path class="st1" d="M355.3,203.4c0,41.5,0,83,0,124.6c-1.3,3-3.7,3.8-6.7,3.7c-4.4-0.1-8.8,0-13.2,0c-83.3,0-166.5,0-249.8,0
				c-5.1,0-6.3-1.2-6.3-6.4c0-39.7,0-79.5,0-119.2c0-4.4,1.4-5.8,5.8-5.8c15.2,0,30.3,0,45.5,0c1.2,0,2.3,0,3.8,0c0-1.7,0-2.9,0-4.2
				c0-24.7,0-49.4,0-74c0-5,1.4-6.5,6.4-6.5c12.2,0,24.3,0,36.5,0c1,0,1.9,0,3.2,0c0-1.4,0-2.4,0-3.4c0-9.8-0.1-19.6,0-29.5
				c0.2-12.7,8.6-22.5,21-23.4c10.2-0.7,20.5-0.6,30.7-0.2c13.6,0.5,22.1,12.7,21.7,24.5c-0.4,9.5,0,19.1-0.1,28.6
				c0,2.5,0.5,3.4,3.1,3.3c12.2-0.1,24.3-0.1,36.5-0.1c5.3,0,6.5,1.3,6.5,6.5c0,24.5,0,49,0,73.5c0,1.5,0,2.9,0,4.7
				c1.5,0,2.5,0,3.6,0c15,0,30,0.1,45-0.1C351.4,200.1,353.7,200.9,355.3,203.4z M153,322.4c0-1.8,0-3.2,0-4.5
				c0-59.2,0-118.4,0-177.6c0-4.5,1.2-5.8,5.4-5.8c39.1,0,78.2,0,117.4,0c4.4,0,5.6,1.4,5.6,5.9c0,59.6,0,119.1,0,178.7
				c0,1.1,0.1,2.2,0.2,3.3c3.2,0,6.2,0,9.6,0c0-2.1,0-4.1,0-6c0-62.9,0-125.9,0-188.8c0-2.8-1.1-3.2-3.4-3.2c-47,0-94,0-140.9,0
				c-1.1,0-2.1,0.1-3.3,0.2c0,66,0,131.8,0,197.8C146.7,322.4,149.7,322.4,153,322.4z M272.5,143.3c-2.8,0-5.3,0-7.7,0
				c-33.4,0-66.7,0-100.1-0.1c-2.5,0-3.1,0.8-3,3.2c0.2,4.3,0.2,8.6,0,12.9c-0.1,2.6,0.7,3.3,3.2,3.3c34.9-0.1,69.8-0.1,104.7-0.1
				c1,0,1.9-0.1,2.9-0.1C272.5,155.9,272.5,149.8,272.5,143.3z M272.6,200.1c-0.8-0.1-1.2-0.2-1.5-0.2c-35.7,0-71.4,0-107.1,0
				c-1.9,0-2.3,0.8-2.3,2.5c0.1,4.4,0,8.8,0,13.2c0,3.6,0,3.6,3.7,3.6c24.5,0,49,0,73.4,0c10.4,0,20.8,0,31.2,0
				c1.1,0,2.6,0.4,2.6-1.5C272.7,211.8,272.6,206,272.6,200.1z M272.5,228.2c-0.9-0.1-1.4-0.2-1.9-0.2c-35.5,0-70.9,0-106.4-0.1
				c-2.2,0-2.6,0.9-2.6,2.8c0.1,4.3,0,8.6,0,12.9c0,3.6,0,3.6,3.6,3.6c34.7,0,69.4,0,104.2,0c1,0,1.9-0.1,3-0.2
				C272.5,240.7,272.5,234.6,272.5,228.2z M272.5,171.6c-1.5-0.1-2.7-0.2-3.8-0.2c-6.9,0-13.9,0-20.8,0c-27.6,0-55.2,0-82.7-0.1
				c-2.8,0-3.6,0.9-3.5,3.7c0.2,4,0.2,8,0,12c-0.1,2.7,0.5,3.6,3.4,3.6c34.8-0.1,69.6-0.1,104.4-0.1c1,0,2-0.1,3.1-0.1
				C272.5,184.2,272.5,178.1,272.5,171.6z M189.6,115.1c0.4,0.2,0.6,0.3,0.7,0.3c17.6,0,35.3,0,52.9,0.1c1.7,0,1.9-0.9,1.9-2.3
				c0-10.4,0.1-20.8-0.1-31.1c-0.2-7.6-6-13.8-12.8-14c-10-0.2-19.9-0.1-29.9,0c-6.3,0.1-12.5,5.8-12.7,12.1
				C189.4,91.8,189.6,103.4,189.6,115.1z M272.6,256.4c-1.4-0.1-2.4-0.2-3.4-0.2c-34.8,0-69.6,0-104.4-0.1c-2.7,0-3.2,1.4-3.1,4.8
				c0.1,17.6,0,35.2,0,52.8c0,9,0,8.9,6.4,9c2.4,0.1,3.3-0.9,3.3-4.6c-0.2-13-0.1-26.1-0.1-39.1c0-7.1,1.3-9,6.1-9
				c26.6,0,53.2,0,79.8,0c4.6,0,5.9,2,5.9,8.4c0,11.6,0,23.2,0,34.8c0,9.5,0,9.3,6.6,9.5c2.5,0,3-1.2,3-4.5
				c-0.1-18.8-0.1-37.5-0.1-56.3C272.6,260.3,272.6,258.6,272.6,256.4z M254.1,275.1c-10.4,0-20.7,0-30.9,0.1
				c-0.6,0-1.5,1.4-1.6,2.1c-0.2,3.6-0.1,7.3-0.1,10.9c0,5.6,0,5.6,5.3,6.1c2.3,0.2,3.8,2,3.9,4.3c0.1,2.4-1.5,4.3-3.9,4.5
				c-1.2,0.1-2.4-0.1-3.5,0.1c-0.6,0.1-1.6,0.9-1.6,1.3c-0.1,5.8-0.1,11.7-0.1,17.7c11,0,21.7,0,32.5,0
				C254.1,306.6,254.1,291,254.1,275.1z M212.8,322.4c0-4.5,0-8.6,0-12.8c0-1.9,0.6-4.2-0.3-5.4c-0.8-1-3.3-0.7-5-0.9
				c-2.2-0.3-3.9-2.1-3.9-4.3c-0.1-2.3,1.7-4.3,4-4.5c1-0.1,2-0.1,3,0c1.6,0.1,2.3-0.5,2.2-2.3c-0.1-4.9-0.1-9.7,0-14.6
				c0-2-0.6-2.5-2.5-2.5c-9.2,0.1-18.4,0-27.7,0c-0.7,0-1.4,0.1-2.3,0.2c0,15.8,0,31.4,0,47.1C191.2,322.4,201.8,322.4,212.8,322.4z
				 M134.5,209.4c-15.6,0-30.8,0-46.2,0c-0.1,0.9-0.2,1.5-0.2,2.2c-0.1,7.5-0.1,7.5,7.2,7.6c12.2,0,24.3,0,36.5,0.1
				c2.1,0,3-0.6,2.8-2.9C134.4,214.2,134.5,212,134.5,209.4z M346.2,209.4c-1.5-0.1-2.8-0.2-4.1-0.2c-11.8,0-23.5,0-35.3,0
				c-7.1,0-7.1,0-7,7.2c0,2.1,0.6,2.8,2.6,2.8c3.9-0.1,7.9,0,11.8,0c9.8,0,19.5,0,29.3-0.1c0.9,0,2.5-0.9,2.6-1.4
				C346.4,215,346.2,212.3,346.2,209.4z M134.3,312.9c-1.1-0.1-2.1-0.1-3.1-0.1c-5.8,0-11.7,0-17.5,0c-7.7,0-15.3,0-23,0.1
				c-0.8,0-2.4,0.8-2.4,1.3c-0.2,2.7-0.1,5.5-0.1,8.3c15.6,0,30.8,0,46.1,0C134.3,319.2,134.3,316.1,134.3,312.9z M346.1,312.8
				c-1.1,0-2.1,0-3.1,0c-4.8,0-9.7,0-14.5,0c-8.7,0-17.4,0-26,0.1c-0.9,0-2.4,0.7-2.4,1.2c-0.2,2.7-0.1,5.5-0.1,8.3
				c15.7,0,30.9,0,46.2,0C346.1,319.2,346.1,316.2,346.1,312.8z M133.9,247.3c0-6.6,0-12.8,0-19.3c-14.2,0-27.9-0.1-41.6,0.1
				c-1.4,0-4,1.2-4,1.9c-0.3,5.1-0.4,10.3,0,15.4c0,0.7,2.6,1.8,4.1,1.8C106,247.4,119.7,247.3,133.9,247.3z M299.9,237.4
				c0,2.5,0.1,5,0,7.6c-0.1,1.6,0.9,2.4,5.2,2.4c12.1-0.1,24.2-0.1,36.3,0c3.9,0,5-0.7,5-2.2c-0.1-5-0.1-10.1,0-15.1
				c0-1.6-1.6-2.1-5.2-2.1c-12.1,0.1-24.2,0.1-36.3,0c-3.9,0-5.1,0.6-5,2.2C300,232.6,299.9,235,299.9,237.4z M346.2,275.3
				c0-6,0.1-11.8-0.2-17.5c0-0.5-2.7-1.5-4.2-1.5c-12.6-0.1-25.2-0.1-37.7,0c-1.4,0-3.9,0.9-4,1.3c-0.3,5.8-0.2,11.7-0.2,17.7
				C315.6,275.3,330.4,275.3,346.2,275.3z M299.9,284.8c0,6-0.1,11.8,0.2,17.5c0,0.5,2.7,1.5,4.2,1.5c12.6,0.1,25.2,0.1,37.7,0
				c1.4,0,3.9-0.9,3.9-1.3c0.3-5.8,0.2-11.7,0.2-17.7C330.6,284.8,315.9,284.8,299.9,284.8z M134.5,284.6c-14.7,0-28.6-0.1-42.5,0.1
				c-1.3,0-3.7,1.3-3.7,1.9c-0.3,5-0.1,10.1-0.3,15.1c0,1.6,1.8,2.1,5.4,2.1c12.1,0,24.3,0,36.4,0c3.4,0,4.7-0.6,4.7-2
				C134.4,296.3,134.5,290.7,134.5,284.6z M134.5,275.5c0-6.1,0.1-11.9-0.2-17.6c0-0.6-3-1.5-4.7-1.6c-12.1-0.1-24.3-0.1-36.4-0.1
				c-3.7,0-5.2,0.7-5.2,2.2c0.1,5,0.1,10.1,0.1,15.1c0,1.4,1.3,2,4.8,2C106.3,275.4,119.8,275.5,134.5,275.5z"/>
			<path class="st1" d="M213.7,100.2c0-4.8,0-4.8-4.7-4.8c-1.1,0-2.2,0.1-3.3,0c-1.9-0.2-3.2-1.7-3.1-3.7c0.1-1.9,1.3-3.3,3.2-3.4
				c1.8-0.1,3.7-0.1,5.5,0c1.8,0.1,2.6-0.5,2.4-2.4c-0.1-1.8-0.1-3.6,0-5.5c0.1-2.2,1.4-3.6,3.5-3.6c2.1,0,3.4,1.3,3.5,3.5
				c0.1,2,0,4.1,0,6.1c0,1.2,0.5,1.8,1.7,1.8c1.9,0,3.8,0,5.7,0c2.3,0.1,3.7,1.4,3.6,3.6c0,2.1-1.4,3.5-3.7,3.6
				c-1.8,0-3.5,0.1-5.3,0c-1.5-0.1-2.2,0.4-2.1,2c0.1,1.8,0,3.6,0,5.5c-0.1,2.6-1.3,4-3.6,3.9c-2.1,0-3.3-1.5-3.4-3.9
				C213.7,102,213.7,101.1,213.7,100.2z"/>
		</g>
	</g>
</g>
</svg>
