<?xml version="1.0" encoding="utf-8"?>
<!-- Generator: Adobe Illustrator 23.0.1, SVG Export Plug-In . SVG Version: 6.00 Build 0)  -->
<svg version="1.1" id="Layer_1" xmlns="http://www.w3.org/2000/svg" xmlns:xlink="http://www.w3.org/1999/xlink" x="0px" y="0px"
	 viewBox="0 0 435 434.8" style="enable-background:new 0 0 435 434.8;" xml:space="preserve">
<style type="text/css">
	.st0{fill:url(#SVGID_1_);}
	.st1{fill:#FFFFFF;}
</style>
<g>
	<g>
		<linearGradient id="SVGID_1_" gradientUnits="userSpaceOnUse" x1="217.264" y1="11.3116" x2="217.4576" y2="422.7367">
			<stop  offset="0" style="stop-color:#CC7686"/>
			<stop  offset="1" style="stop-color:#38BCB9"/>
		</linearGradient>
		<circle class="st0" cx="217.4" cy="215.3" r="205.7"/>
	</g>
	<g id="Wrgbpw.tif_1_">
		<g>
			<path class="st1" d="M328.2,231.6c-3.6,21-15.6,34-35.2,40.3c13.7,17.7,15.3,39.5,22.7,59c0.1,0.2-0.1,0.6-0.3,1.2
				c-65.2,0-130.4,0-197.1,0c8.2-20.1,9.5-42,23.5-60c-19.3-6.8-31.5-19.8-35.3-40.4c3.6-0.4,6.9-0.7,10.2-1.2
				c19-2.6,32.8-18.2,33.1-37.6c0.2-12.9,0.1-25.9,0.1-38.8c0-13.3,3.9-25.5,11.2-36.5c1.6-2.4,2.2-4.3,0.8-7.1
				c-1.5-3-2.3-6.3-3.6-9.4c-1-2.4-0.6-3.8,2-5c18.3-8.3,36.4-16.9,54.7-25.2c1.3-0.6,3.4-0.7,4.7-0.1c18.8,8.6,37.6,17.3,56.3,26.1
				c0.4,0.2,0.7,0.5,1.5,1.1c-1.5,4.2-3.2,8.3-4.4,12.7c-0.5,1.9-0.5,4.6,0.5,6.2c7.6,12,11.8,24.9,11.4,39.3
				c-0.3,11.3,0.2,22.5-0.1,33.8c-0.7,22.9,16.1,41.7,40.2,41.3C326,231.2,326.9,231.4,328.2,231.6z M267.5,324
				c-1-8.4-1.8-16.5-3-24.6c-0.4-3-0.1-4.6,3.3-5c3.3-0.4,5.1,0.2,5.4,4c0.6,7.3,1.7,14.5,2.4,21.8c0.3,3,1.4,4.2,4.6,4.1
				c6.1-0.2,12.2-0.1,18.3-0.1c1.9,0,3.7,0,6.7,0c-4.5-13.4-8.1-25.9-13-38c-1.8-4.4-6-9-10.3-11.1c-9.8-4.7-20.2-7.9-31-11.9
				c-3.4,13.4-6.6,25.9-9.8,38.5c-0.5,0.2-1,0.5-1.5,0.7c-7.2-7.7-14.4-15.3-22.4-23.8c-8,8.2-15.2,15.7-23.2,23.9
				c-3.4-13.5-6.6-26-9.9-39c-8.5,2.9-16.3,5.6-24.3,8.1c-9.7,3-16.2,9.4-19.4,19c-2.4,7.2-4.5,14.5-6.7,21.8
				c-1.1,3.7-2.2,7.4-3.6,11.8c8.3,0,15.9-0.4,23.4,0.1c4.4,0.3,5.5-1.6,5.9-5.3c0.6-6.8,1.6-13.6,2.2-20.4c0.3-3.4,1.6-4.8,5.2-4.2
				c3.7,0.5,3.8,2.3,3.3,5.4c-1.1,7.9-1.9,15.9-2.9,24.2C200.9,324,233.9,324,267.5,324z M216.9,162.1c-0.3,0.2-1,0.7-1.7,1.2
				c-7.8,6.7-16.4,11.5-26.9,12.1c-3.2,0.2-6.4,0.5-9.6,0.4c-2.8-0.1-3.8,1-3.8,3.8c0.1,4.9-0.2,9.8,0.1,14.6
				c0.4,6.5,0.4,13.2,2.1,19.4c4.6,16.6,20.8,29.1,38.5,29.8c18.6,0.8,36.4-11,41.9-28.8c3.7-11.9,1.9-24.2,2.1-36.3
				c0-0.8-2.4-2-3.9-2.3c-7.2-1.2-14.7-1.2-21.4-3.6C228.2,170.3,222.9,165.8,216.9,162.1z M276.4,179.6c2.3-25.7-1.4-47.9-8.9-54
				c-1.9,4.6-3.7,9.2-5.7,14.3c-13.9-9-29.1-10.2-44.3-10.2c-15.2,0-30.4,1.2-44.3,10.2c-2.1-5.1-3.9-9.8-5.9-14.6
				c-7.9,7.5-13,42.2-8.2,53.9c6.5-2.7,6.3-2.8,7.6-9c0.2-1.2,2.2-2.8,3.5-2.9c4.1-0.4,8.2-0.3,12.3-0.1c13.2,0.5,23.5-5,31.7-15.1
				c1-1.3,2.1-2.4,3.2-3.6c0.7,0.5,1,0.6,1.2,0.8c0.5,0.6,1,1.1,1.5,1.7c8.4,10.9,19.5,16.1,33.2,16.1c3.8,0,7.6,0,11.4,0
				c2.3,0,4.3,0.6,3.8,3.3C267,177,271.9,177.6,276.4,179.6z M167.8,102c2.5,6.7,4.7,12.7,7,18.6c2.6,6.9,2.6,6.9,9.8,4.5
				c0.9-0.3,1.7-0.6,2.6-0.8c22.5-4.6,45-5.4,67.1,1.9c3,1,3.7-0.2,4.6-2.5c2.2-6.1,4.4-12.3,6.9-18.3c1.2-2.9,0.4-4-2.1-5.2
				c-14.5-6.6-28.9-13.5-43.5-20c-1.6-0.7-4.2-0.7-5.8,0.1c-10.1,4.5-20.2,9.2-30.2,13.9C178.8,96.9,173.4,99.4,167.8,102z
				 M117.3,239.4c5.1,11.4,12.6,19.5,24.1,22.9c4.9,1.4,10.6,2.2,15.5,1.1c8.7-1.9,17.1-5.4,25.5-8.3c6.3-2.2,7.7-10.6,2.6-14.9
				c-6.2-5.2-11-11.3-14.1-18.8c-0.5-1.2-1.3-2.7-2.3-3.2c-4.6-2.1-9.3-3.9-14.7-6C147,227.2,134.2,235.9,117.3,239.4z M280.7,212.2
				c-5.1,2-9.7,3.7-14.2,5.7c-1.2,0.5-1.8,2.2-2.7,3.5c-3.9,5.6-7.1,11.9-11.9,16.5c-4,3.8-5.4,7.5-4.5,12.3c0.3,1.5,1.7,3.5,3.1,4
				c7.1,2.7,14.5,4.6,21.5,7.6c11.1,4.7,21.2,2.6,30.8-3.6c6.9-4.5,11.8-10.6,14.7-19C300,236.5,288.2,227,280.7,212.2z M237.7,248
				c-13.7,4.9-27.1,6.4-40.4,0.1c-1.6,4.9-1.5,5.6,1.5,7.7c5.2,3.6,10.5,7.3,15.9,10.6c1.4,0.8,4.1,0.8,5.6,0
				c5.2-3.1,10.1-6.8,15.2-10C238.6,254.3,239.3,251.9,237.7,248z M241.8,263.8c-0.4-0.3-0.7-0.5-1.1-0.8
				c-5.4,3.6-10.8,7.1-15.8,10.4c3.9,4.3,7.2,7.9,11.3,12.5C238.3,277.9,240,270.8,241.8,263.8z M194.1,263
				c-0.4,0.3-0.8,0.5-1.2,0.8c1.8,7.1,3.6,14.1,5.6,21.7c4.3-4.3,7.7-7.8,11.7-11.8C204.8,270.1,199.4,266.6,194.1,263z
				 M166.4,185.4c-6.1,3-8.7,7.5-8.1,12.8c0.6,5,3.3,8.4,8.1,9.8C166.4,200.7,166.4,193.4,166.4,185.4z M268.4,185.8
				c0,7.8,0,15.1,0,22.5c5.3-1.8,8.1-5.8,8.3-10.9C276.8,192.2,274.1,188.2,268.4,185.8z"/>
			<path class="st1" d="M214.9,100.3c0-2,0-4.3,0-6.5c0-2,0.9-3.1,2.4-3.2c1.6,0,2.5,1.1,2.5,3.1c0,2.2,0,4.5,0,6.9c2.5,0,5,0,7.4,0
				c1.4,0,2.3,0.7,2.6,2.1c0.2,1.2-0.3,2.2-1.4,2.6c-0.5,0.2-1.1,0.2-1.7,0.3c-2.2,0-4.5,0-6.8,0c0,2.4,0,4.6,0,6.8
				c0,2-0.9,3.1-2.4,3.2c-1.5,0-2.5-1.1-2.5-3.1c0-2.2,0-4.5,0-6.9c-2.5,0-4.9,0-7.2,0c-1.8,0-2.9-1.2-2.8-2.7
				c0.1-1.3,1.1-2.2,2.7-2.3c2.3,0,4.7,0,7-0.1C214.6,100.5,214.7,100.5,214.9,100.3z"/>
		</g>
	</g>
</g>
</svg>
