<?xml version="1.0" encoding="utf-8"?>
<!-- Generator: Adobe Illustrator 23.0.1, SVG Export Plug-In . SVG Version: 6.00 Build 0)  -->
<svg version="1.1" id="Layer_1" xmlns="http://www.w3.org/2000/svg" xmlns:xlink="http://www.w3.org/1999/xlink" x="0px" y="0px"
	 viewBox="0 0 435 434.8" style="enable-background:new 0 0 435 434.8;" xml:space="preserve">
<style type="text/css">
	.st0{fill:url(#SVGID_1_);}
	.st1{fill:#FFFFFF;}
</style>
<g>
	<g>
		<g>
			<g>
				<linearGradient id="SVGID_1_" gradientUnits="userSpaceOnUse" x1="217.264" y1="11.3116" x2="217.4576" y2="422.7367">
					<stop  offset="0" style="stop-color:#CC7686"/>
					<stop  offset="1" style="stop-color:#38BCB9"/>
				</linearGradient>
				<circle class="st0" cx="217.4" cy="215.3" r="205.7"/>
			</g>
		</g>
	</g>
	<g id="CqmdHC.tif">
		<g>
			<path class="st1" d="M194.5,354.4c-1.2-1.1-2.5-2.1-3.4-3.4c-7.2-9.5-14.3-18.9-21.4-28.5c-1.3-1.7-2.3-2-4.2-1.2
				c-12.2,5-24.5,9.9-36.8,14.8c-2.1,0.8-4,1.2-5.8-0.5c-1.8-1.9-1.3-3.9-0.2-6c11.4-22.7,22.7-45.4,34-68.1
				c0.4-0.9,0.8-1.8,1.2-2.8c-2.4-0.2-4.6-0.3-6.6-0.7c-7.5-1.6-12.2-7.5-12.3-15.2c0-8.6-0.1-17.2,0.1-25.9c0.1-3.2-1-5.5-3.2-7.7
				c-6-5.8-11.8-11.8-17.7-17.7c-6.6-6.6-6.6-16.4,0.1-23.1c6-5.9,12-11.9,18.1-17.7c1.9-1.8,2.8-3.8,2.7-6.5
				c-0.1-8.7,0-17.4,0-26.1c0-9.4,6.9-16.4,16.3-16.4c8.7,0,17.4-0.1,26.1,0c2.5,0,4.3-0.8,6-2.5c6.1-6.2,12.3-12.3,18.5-18.5
				c6.5-6.5,16.4-6.5,22.9,0.1c5.9,5.9,11.7,11.9,17.5,17.9c2,2.1,4.2,3.1,7.2,3.1c8.6-0.1,17.2-0.1,25.9-0.1
				c9.2,0,16.2,7,16.3,16.1c0,8.5,0.1,17.1-0.1,25.6c-0.1,3,0.9,5.2,3,7.2c6.1,5.9,12.1,12,18.1,18.1c6.4,6.4,6.3,16.2-0.1,22.7
				c-6.1,6.2-12.2,12.4-18.5,18.4c-2.1,2.1-3,4.3-3,7.2c0.1,8.3-0.3,16.5,0.1,24.8c0.4,9-7.9,17.1-16.5,16.5c-0.6,0-1.2,0.1-2.1,0.2
				c0.5,1.1,0.8,2,1.3,2.8c11.3,22.6,22.6,45.2,33.9,67.8c0.6,1.2,1.2,2.6,1.1,3.8c-0.2,3.1-3.3,4.4-6.6,3
				c-11.4-4.6-22.9-9.2-34.3-13.7c-5.3-2.1-5.3-2.1-8.7,2.5c-6.5,8.7-13,17.4-19.6,26.1c-1,1.3-2.3,2.3-3.4,3.4c-0.7,0-1.4,0-2.2,0
				c-1.2-1.6-2.9-3.1-3.4-4.9c-5.1-16-10.1-32.1-15.1-48.2c-0.6-1.8-1.2-3.7-1.8-5.5c-0.9,0.9-1.2,1.8-1.5,2.7
				c-5.3,16.8-10.6,33.7-15.8,50.5c-0.7,2.2-1.5,4.3-3.7,5.4C195.9,354.4,195.2,354.4,194.5,354.4z M168.4,110.4
				c-4.5,0-9.1,0-13.6,0c-5.1,0-7.2,2.1-7.2,7.3c0,8.7-0.1,17.4,0,26.1c0.1,5.3-1.8,9.7-5.6,13.3c-5.9,5.7-11.8,11.5-17.7,17.3
				c-4.3,4.2-4.3,7,0,11.3c6.1,6.1,12.2,12.2,18.3,18.3c3.4,3.4,5.1,7.4,5,12.2c0,8.8,0,17.6,0,26.4c0,4.6,2.6,7.2,7.2,7.3
				c8.8,0,17.6,0.1,26.4,0c5.1,0,9.3,1.7,12.9,5.3c5.9,6,12.1,11.8,17.8,18c3.4,3.7,8,3.8,11.5,0.1c5.9-6.3,12.1-12.2,18.2-18.3
				c3.4-3.4,7.4-5.1,12.2-5c8.3,0.1,16.7,0,25,0c6,0,7.9-1.9,8-8c0-8.4,0.1-16.9,0-25.3c0-4.9,1.7-9,5.2-12.4
				c6.2-6.2,12.5-12.4,18.7-18.6c4-4,4-6.9-0.1-10.9c-6.1-6.1-12.2-12.2-18.3-18.3c-3.5-3.4-5.2-7.5-5.2-12.4c0-8.7,0-17.4,0-26.1
				c0-5.5-2-7.5-7.6-7.5c-8.4,0-16.9-0.1-25.3,0c-5.6,0.1-10.2-1.7-14.1-5.8c-5.7-6-11.5-11.8-17.3-17.7c-4-4-6.8-4-10.9,0
				c-6.2,6.2-12.4,12.4-18.7,18.7c-3.2,3.2-7.1,4.8-11.7,4.8C177.1,110.4,172.8,110.4,168.4,110.4z M134.8,324.5
				c1.7-0.7,2.7-1,3.6-1.4c9.6-3.8,19.2-7.7,28.8-11.5c2.8-1.1,4.6-0.6,6.4,1.8c6.3,8.4,12.6,16.9,18.9,25.3c0.4,0.6,0.9,1.1,1.7,2
				c6-19.3,12-38.3,17.7-56.7c-2.5-2.1-4.8-3.8-6.7-5.7c-5.7-5.6-11.4-11.2-16.9-16.9c-1.9-1.9-4-2.9-6.7-2.8
				c-3.6,0.2-7.3,0.2-10.9,0c-2.2-0.1-3.2,0.7-4.1,2.6c-9.7,19.6-19.5,39.1-29.2,58.6C136.5,321,135.8,322.4,134.8,324.5z
				 M240.7,340.8c0.9-1.2,1.5-1.8,2-2.5c6.2-8.3,12.4-16.5,18.6-24.8c2-2.6,3.6-3,6.6-1.8c9.7,3.9,19.5,7.9,29.2,11.8
				c0.7,0.3,1.4,0.4,2.7,0.8c-1.7-3.5-3.2-6.5-4.7-9.5c-9-18-18-36-26.9-54c-0.9-1.7-1.8-2.4-3.7-2.3c-3.3,0.1-6.7,0.2-10.1,0
				c-3.1-0.2-5.3,1-7.4,3.1c-7.9,7.5-14.7,16.2-24,22.6C228.8,302.7,234.7,321.5,240.7,340.8z"/>
			<path class="st1" d="M217.5,110.6c37.9,0,69.5,32,69.4,70.3c0,36.9-32.2,69-69.2,68.9c-38.2-0.1-70-31.7-70-69.5
				C147.7,142.4,179.6,110.6,217.5,110.6z M217.3,241.3c34.8,0,61.1-26.7,61.1-61.8c0-33.9-27-60.3-61.5-60.3
				c-33.8,0-60.6,26.9-60.6,60.7C156.3,214.6,182.9,241.3,217.3,241.3z"/>
			<path class="st1" d="M165.2,180.1c0-28.2,24.2-52.2,52.4-52.1c27.9,0.1,52,24.1,51.9,52c0,28.6-24,52.4-52.7,52.3
				C189.1,232.3,165.2,208.1,165.2,180.1z M217.3,223.9c24.7,0,43.7-18.8,43.7-43.4c0-24.9-18.8-43.8-43.6-43.9
				c-24.7,0-43.7,18.8-43.7,43.4C173.7,204.9,192.5,223.8,217.3,223.9z"/>
			<path class="st1" d="M182.6,179.1c0.2-15.6,13.6-30.7,29.2-33.1c1.4-0.2,2.9-0.4,4.3-0.5c3.3-0.1,5.5,1.6,5.5,4.2
				c0,2.5-2,4.2-5.2,4.3c-7.5,0.2-13.9,3-18.9,8.7c-4.2,4.7-6.2,10.4-6.3,16.7c-0.1,3.5-2.5,5.8-5.2,5
				C183.4,183.6,182.4,181.6,182.6,179.1z"/>
			<path class="st1" d="M252.1,181.7c-0.6,17.2-16.1,32.6-33.3,33.3c-3.4,0.1-5.6-1.4-5.7-4c-0.1-2.6,1.9-4.4,5.3-4.5
				c14.3-0.5,24.6-10.9,25.2-25.2c0.1-3.4,1.8-5.4,4.5-5.3C250.7,176.1,252.2,178.3,252.1,181.7z"/>
		</g>
	</g>
</g>
</svg>
