<?xml version="1.0" encoding="utf-8"?>
<!-- Generator: Adobe Illustrator 23.0.1, SVG Export Plug-In . SVG Version: 6.00 Build 0)  -->
<svg version="1.1" id="Layer_1" xmlns="http://www.w3.org/2000/svg" xmlns:xlink="http://www.w3.org/1999/xlink" x="0px" y="0px"
	 viewBox="0 0 435 434.8" style="enable-background:new 0 0 435 434.8;" xml:space="preserve">
<style type="text/css">
	.st0{fill:url(#SVGID_1_);}
	.st1{fill-rule:evenodd;clip-rule:evenodd;fill:#FFFFFF;}
</style>
<g>
	<g>
		<g>
			<linearGradient id="SVGID_1_" gradientUnits="userSpaceOnUse" x1="217.264" y1="11.3116" x2="217.4576" y2="422.7367">
				<stop  offset="0" style="stop-color:#CC7686"/>
				<stop  offset="1" style="stop-color:#38BCB9"/>
			</linearGradient>
			<circle class="st0" cx="217.4" cy="215.3" r="205.7"/>
		</g>
	</g>
	<path class="st1" d="M334.7,294.3L334.7,294.3c0,14.1-11.4,25.5-25.5,25.5l0,0H125.5l0,0c-14.1,0-25.5-11.4-25.5-25.5v-148
		c0-11.3,9.1-20.4,20.4-20.4l0,0h102.9l41.3-15c2.6-1,5.5,0.4,6.5,3l4.4,12h18.4c11.3,0,20.4,9.1,20.4,20.4v10.2l0,0
		c11.3,0,20.4,9.1,20.4,20.4V294.3z M120.4,136.2L120.4,136.2c-5.6,0-10.2,4.6-10.2,10.2c0,5.6,4.6,10.2,10.2,10.2H138l0,0h1
		c0.1,0,0.1-0.1,0.2-0.1l56-20.3H120.4z M268.8,137.1l-5.4-14.9h0l0,0l-10.5,3.8h0l-28.1,10.2h-0.1l-56.3,20.4h107.5L268.8,137.1z
		 M304.1,146.4c0-5.6-4.6-10.2-10.2-10.2h-14.7l7.4,20.4h17.5l0,0V146.4z M314.3,166.8H120.4l0,0c-3.7,0-7.2-1.1-10.2-2.8v130.4
		c0,8.5,6.9,15.3,15.3,15.3h183.7c8.5,0,15.3-6.9,15.3-15.3v-35.7h-20.4c-11.3,0-20.4-9.1-20.4-20.4c0-11.3,9.1-20.4,20.4-20.4h20.4
		V177C324.5,171.4,319.9,166.8,314.3,166.8z M324.5,248.4V228h-20.4c-5.6,0-10.2,4.6-10.2,10.2c0,5.6,4.6,10.2,10.2,10.2H324.5z"/>
</g>
</svg>
