<svg xmlns="http://www.w3.org/2000/svg" width="21" height="24.158" viewBox="0 0 21 24.158">
  <g id="iconfinder_01_halloween-calendar_2660282" transform="translate(-12.5 -9.5)">
    <g id="Group_15" data-name="Group 15" transform="translate(17.579 19.671)">
      <path id="Path_24" data-name="Path 24" d="M21.7,35.134a.586.586,0,0,1,.169-.484.963.963,0,0,1,.581-.133,1.143,1.143,0,0,1,.641.127.5.5,0,0,1,.169.429.747.747,0,0,0,.339.647,1.583,1.583,0,0,0,.919.236,1.351,1.351,0,0,0,.986-.309,1.368,1.368,0,0,0,.308-1v-.23q0-1.149-1.331-1.15-.46,0-.46-.617t.468-.617a1.263,1.263,0,0,0,.816-.234,1.192,1.192,0,0,0,.288-.945A.939.939,0,0,0,24.533,29.8q-1.077,0-1.077.806,0,.6-.751.6a1.056,1.056,0,0,1-.659-.138.724.724,0,0,1-.151-.536,1.928,1.928,0,0,1,.133-.7,2.291,2.291,0,0,1,.417-.674,2.023,2.023,0,0,1,.829-.535,3.571,3.571,0,0,1,1.271-.206q2.565,0,2.565,2.173a2.956,2.956,0,0,1-.25,1.26,1.437,1.437,0,0,1-.7.741,1.8,1.8,0,0,1,1.231,1.827v.23a2.465,2.465,0,0,1-.8,2.033,3.226,3.226,0,0,1-2.1.653,2.888,2.888,0,0,1-2.075-.677A2.065,2.065,0,0,1,21.7,35.134Z" transform="translate(-21.701 -28.394)" fill="#06c9c3"/>
      <path id="Path_25" data-name="Path 25" d="M35.272,30.588a.705.705,0,0,1-.145-.435.632.632,0,0,1,.3-.568L36.857,28.5a.5.5,0,0,1,.327-.121.856.856,0,0,1,.484.145.427.427,0,0,1,.218.363v7.865a.4.4,0,0,1-.236.363,1.218,1.218,0,0,1-1.107,0,.4.4,0,0,1-.23-.363V30.286l-.387.387a.416.416,0,0,1-.291.109A.437.437,0,0,1,35.272,30.588Z" transform="translate(-28.061 -28.374)" fill="#06c9c3"/>
    </g>
    <g id="Group_16" data-name="Group 16" transform="translate(13 10)">
      <path id="Path_26" data-name="Path 26" d="M33,32.947a2.105,2.105,0,0,1-2.105,2.105H15.105A2.105,2.105,0,0,1,13,32.947V14H33Z" transform="translate(-13 -11.895)" fill="none" stroke="#06c9c3" stroke-width="1"/>
      <line id="Line_2" data-name="Line 2" x2="20" transform="translate(0 6.316)" fill="none" stroke="#06c9c3" stroke-width="1"/>
      <path id="Path_27" data-name="Path 27" d="M19,12.105a2.105,2.105,0,1,1,2.105,2.105" transform="translate(-15.842 -10)" fill="none" stroke="#06c9c3" stroke-width="1"/>
      <path id="Path_28" data-name="Path 28" d="M37,12.105a2.105,2.105,0,1,1,2.105,2.105" transform="translate(-24.368 -10)" fill="none" stroke="#06c9c3" stroke-width="1"/>
    </g>
  </g>
</svg>
