<svg xmlns="http://www.w3.org/2000/svg" width="22.927" height="22.925" viewBox="0 0 22.927 22.925">
  <g id="iconfinder_Upload_1031498" transform="translate(0 0)" opacity="0.5">
    <path id="Path_30" data-name="Path 30" d="M22.211,22a.717.717,0,0,0-.716.716v5.015H1.433V22.712a.716.716,0,1,0-1.433,0v5.732a.717.717,0,0,0,.716.716H22.211a.717.717,0,0,0,.716-.716V22.712A.716.716,0,0,0,22.211,22Z" transform="translate(0 -6.236)" fill="#747474"/>
    <path id="Path_31" data-name="Path 31" d="M9.242,6.163l3.779-3.726V16.476a.724.724,0,0,0,1.447,0V2.438l3.779,3.726a.728.728,0,0,0,1.023,0,.711.711,0,0,0,0-1.013L14.257.207a.737.737,0,0,0-1.024,0L8.219,5.15a.711.711,0,0,0,0,1.013A.728.728,0,0,0,9.242,6.163Z" transform="translate(-2.27 0)" fill="#747474"/>
  </g>
</svg>
