<?xml version="1.0" encoding="utf-8"?>
<!-- Generator: Adobe Illustrator 23.0.1, SVG Export Plug-In . SVG Version: 6.00 Build 0)  -->
<svg version="1.1" id="Layer_1" xmlns="http://www.w3.org/2000/svg" xmlns:xlink="http://www.w3.org/1999/xlink" x="0px" y="0px"
	 viewBox="0 0 435 434.8" style="enable-background:new 0 0 435 434.8;" xml:space="preserve">
<style type="text/css">
	.st0{fill:url(#SVGID_1_);}
	.st1{fill:url(#SVGID_2_);}
	.st2{fill:url(#SVGID_3_);}
	.st3{fill:url(#SVGID_4_);}
	.st4{fill:url(#SVGID_5_);}
	.st5{fill:url(#SVGID_6_);}
	.st6{fill:url(#SVGID_7_);}
</style>
<g id="hNoNK7.tif">
	<g>
		<linearGradient id="SVGID_1_" gradientUnits="userSpaceOnUse" x1="215.0328" y1="2.5499" x2="216.0328" y2="427.5499">
			<stop  offset="0" style="stop-color:#EE697C"/>
			<stop  offset="1" style="stop-color:#FBC8C7"/>
		</linearGradient>
		<path class="st0" d="M116.7,65.8c2.3-19.7,13.2-29.7,31.4-29.6c12.9,0,25.8,0,39,0c0.7-9.8,4.2-18,11.8-23.9
			c5.5-4.3,11.8-6.1,18.6-5.7C231.8,7.4,242,18.7,244,36.1c4.6,0,9.2,0,13.9,0c8.8,0,17.6,0,26.4,0c16.7,0,28,10.5,29.9,28
			c0.1,0.4,0.2,0.8,0.4,1.7c8.8,0,17.5,0,26.3,0c9.9,0,15.6,5.9,15.6,16.4c0,107.7,0,215.5,0,323.2c0,10-5.8,16.1-15.4,16.1
			c-83.6,0-167.3,0-250.9,0c-9.9,0-15.5-6-15.5-16.5c0-107.3,0-214.6,0-321.8c0-11.8,5.3-17.4,16.4-17.4
			C99.5,65.8,108,65.8,116.7,65.8z M342,406.5c0-108.9,0-217.3,0-325.7c-9.4,0-18.4,0-27.7,0c-0.1,1.3-0.1,2.3-0.2,3.4
			c-0.1,9.5-1.8,11.2-10.9,11.2c-36.8,0-73.7,0-110.5,0c-22.2,0-44.3,0-66.5,0c-7.1,0-9.4-2.4-9.4-10c0-1.5,0-3,0-4.5
			c-9.6,0-18.8,0-27.8,0c0,108.8,0,217.2,0,325.6C173.6,406.5,257.6,406.5,342,406.5z M300.1,80.4c0-4.4,0-8.2,0-12
			c0-11.8-5.3-17.4-16.4-17.4c-16.4,0-32.9,0-49.3,0c-1.5,0-3.1,0-4.8,0c0-4.9,0-9,0-13.2c0-9.7-5.9-16.5-14.2-16.5
			c-8.3,0.1-14,6.8-14,16.6c0,4.3,0,8.5,0,13c-2,0-3.5,0-4.9,0c-16.9,0-33.7,0-50.6,0c-7.6,0-13.7,4.7-14.5,12
			c-0.7,5.7-0.1,11.6-0.1,17.4C187.6,80.4,243.6,80.4,300.1,80.4z"/>
		<linearGradient id="SVGID_2_" gradientUnits="userSpaceOnUse" x1="243.4203" y1="2.4831" x2="244.4203" y2="427.4831">
			<stop  offset="0" style="stop-color:#EE697C"/>
			<stop  offset="1" style="stop-color:#FBC8C7"/>
		</linearGradient>
		<path class="st1" d="M243.7,199.2c16,0,31.9,0,47.9,0c3.7,0,6.6,1.2,8,5c1.8,5.1-1.9,9.8-7.7,9.8c-17.9,0.1-35.8,0-53.6,0
			c-14.4,0-28.7,0.2-43.1-0.2c-2.3-0.1-5.4-1.9-6.7-3.9c-1.1-1.6-1-5.7,0.3-7.1c1.7-2,4.9-3.4,7.5-3.5
			C212,199,227.9,199.2,243.7,199.2L243.7,199.2z"/>
		<linearGradient id="SVGID_3_" gradientUnits="userSpaceOnUse" x1="243.057" y1="2.484" x2="244.057" y2="427.484">
			<stop  offset="0" style="stop-color:#EE697C"/>
			<stop  offset="1" style="stop-color:#FBC8C7"/>
		</linearGradient>
		<path class="st2" d="M243.3,347.4c-15.7,0-31.4,0-47,0c-5.6,0-8.8-2.7-8.8-7.3c0-4.7,3.1-7.5,8.7-7.5c31.8,0,63.6,0,95.4,0
			c5.4,0,8.7,2.9,8.6,7.5c-0.1,4.5-3.2,7.2-8.5,7.3C275.5,347.4,259.4,347.4,243.3,347.4z"/>
		<linearGradient id="SVGID_4_" gradientUnits="userSpaceOnUse" x1="257.5247" y1="2.4499" x2="258.5247" y2="427.45">
			<stop  offset="0" style="stop-color:#EE697C"/>
			<stop  offset="1" style="stop-color:#FBC8C7"/>
		</linearGradient>
		<path class="st3" d="M258.5,154.7c11,0,22,0,33,0c5.5,0,8.7,2.9,8.6,7.5s-3.3,7.3-8.8,7.3c-22.3,0-44.5,0-66.8,0
			c-5.6,0-8.8-2.7-8.8-7.3c-0.1-4.8,3.2-7.5,9-7.5C235.9,154.7,247.2,154.7,258.5,154.7z"/>
		<linearGradient id="SVGID_5_" gradientUnits="userSpaceOnUse" x1="257.065" y1="2.451" x2="258.065" y2="427.451">
			<stop  offset="0" style="stop-color:#EE697C"/>
			<stop  offset="1" style="stop-color:#FBC8C7"/>
		</linearGradient>
		<path class="st4" d="M257.7,302.9c-11.1,0-22.3,0-33.4,0c-5.5,0-8.7-2.8-8.8-7.4c0-4.6,3.2-7.4,8.7-7.4c22.4,0,44.8,0,67.3,0
			c5.4,0,8.7,3,8.5,7.6c-0.1,4.5-3.2,7.2-8.5,7.2C280.3,302.9,269,302.9,257.7,302.9L257.7,302.9z"/>
		<linearGradient id="SVGID_6_" gradientUnits="userSpaceOnUse" x1="158.8489" y1="2.6821" x2="159.8489" y2="427.6821">
			<stop  offset="0" style="stop-color:#EE697C"/>
			<stop  offset="1" style="stop-color:#FBC8C7"/>
		</linearGradient>
		<path class="st5" d="M150.9,195.2c7.6-12,14.6-23.1,21.7-34.2c0.8-1.3,1.5-2.7,2.5-3.8c2.7-2.9,5.9-3.5,9.1-1.2
			c3.2,2.3,4,5.5,2.4,9.3c-0.4,0.8-0.8,1.6-1.3,2.4c-8.7,13.7-17.4,27.4-26.1,41.1c-4.2,6.5-8.2,6.9-13.5,1.3
			c-4-4.1-7.9-8.2-11.8-12.4c-3.5-3.8-3.7-8.3-0.6-11.4c3-3,7-2.7,10.5,0.9C146.1,189.7,148.2,192.2,150.9,195.2z"/>
		<linearGradient id="SVGID_7_" gradientUnits="userSpaceOnUse" x1="158.3539" y1="2.6833" x2="159.3539" y2="427.6833">
			<stop  offset="0" style="stop-color:#EE697C"/>
			<stop  offset="1" style="stop-color:#FBC8C7"/>
		</linearGradient>
		<path class="st6" d="M150.7,328.8c8.1-12.7,15.5-24.4,22.8-36c1.8-2.9,4-5,7.5-4.6c5.4,0.6,8,6.7,4.8,11.9
			c-3.9,6.5-8.1,12.8-12.1,19.3c-4.9,7.8-9.9,15.6-14.9,23.4c-3.7,5.8-8,6.2-12.7,1.5c-4.2-4.3-8.3-8.7-12.4-13.1
			c-3.4-3.7-3.6-7.9-0.8-11.1c3-3.3,7.2-3.1,10.8,0.7C146.1,323.1,148.2,325.8,150.7,328.8z"/>
	</g>
</g>
</svg>
