<?xml version="1.0" encoding="utf-8"?>
<!-- Generator: Adobe Illustrator 23.0.1, SVG Export Plug-In . SVG Version: 6.00 Build 0)  -->
<svg version="1.1" id="Layer_1" xmlns="http://www.w3.org/2000/svg" xmlns:xlink="http://www.w3.org/1999/xlink" x="0px" y="0px"
	 viewBox="0 0 435 434.8" style="enable-background:new 0 0 435 434.8;" xml:space="preserve">
<style type="text/css">
	.st0{fill:url(#SVGID_1_);}
	.st1{fill:url(#SVGID_2_);}
	.st2{fill:url(#SVGID_3_);}
	.st3{fill:url(#SVGID_4_);}
	.st4{fill:url(#SVGID_5_);}
	.st5{fill:url(#SVGID_6_);}
	.st6{fill:url(#SVGID_7_);}
</style>
<g id="n4DE2a.tif">
	<g>
		<linearGradient id="SVGID_1_" gradientUnits="userSpaceOnUse" x1="194.8902" y1="10.5299" x2="194.8902" y2="423.8142">
			<stop  offset="0" style="stop-color:#EE697C"/>
			<stop  offset="1" style="stop-color:#FBC8C7"/>
		</linearGradient>
		<path class="st0" d="M97.1,87.9c-13.5-4.1-26.7-8.1-40.5-12.3c0,1.8,0,3.1,0,4.4c0,5.8,0,11.5,0,17.3c0,9.3-1.9,19.1,0.6,27.7
			c2.6,9,9.4,16.8,14.3,25.1c1.4,2.4,3,4.8,4.3,7.2c2.6,5-0.1,10.2-5.7,10.2c-13.5,0.2-27,0.2-40.5,0c-5.7-0.1-8.5-5.5-5.5-10.6
			c5.6-9.6,11.5-19,17-28.6c1.1-1.9,1.8-4.4,1.9-6.7c0.2-17.7,0.1-35.4,0.1-53.2c0-6,1.1-7.5,7-9.3C100.3,44,150.5,28.7,200.7,13.5
			c2.6-0.8,5.9-0.8,8.5,0C259.6,28.7,310,44.1,360.3,59.4c3.7,1.1,6.6,2.8,6.6,7c0,4.2-2.8,6-6.5,7.1c-15.7,4.7-31.4,9.6-47.4,14.4
			c0,8.5,0,16.9,0,25.5c-4.6,0-8.8,0-13.4,0c0-6.9,0-13.8,0-21.2c-1.8,0.4-3.3,0.7-4.6,1.1c-28.2,8.6-56.4,17.1-84.6,25.8
			c-3.7,1.1-6.9,1.2-10.6,0.1c-28.6-8.8-57.2-17.5-85.8-26.2c-0.9-0.3-1.9-0.5-3.2-0.8c0,16.1,0,32,0,48.4c22.3,0,44.5,0,67,0
			c0,4.6,0,8.8,0,13.6c-1.5,0-3,0-4.5,0c-20.4,0-40.8,0.1-61.2-0.1c-3,0-4.4,1-5.8,3.5C99.8,170,97,183.4,94,196.8
			c-7.2,32.3-14.6,64.7-21.8,97c-0.1,0.5-0.2,1.1-0.4,2.1c7.9,0,15.6,0,23.2,0c6.3,0,8.7,2.3,8.7,8.6c0,11.1,0,22.2,0,33.5
			c12.2-1,22.2-6,30.6-13.9c3.2,3.1,6.2,6.1,9.1,9c-6.4,8.9-21.3,16-39.6,18.7c0,9.6-0.8,19.4,0.2,28.9c1.4,13.3,12.8,23.1,26,23.1
			c58.1,0.1,116.1,0,174.2,0c0.4,0,0.8-0.1,1.7-0.2c0-15.5,0-31,0-46.8c4.7,0,9,0,13.5,0c0.1,1.1,0.2,2.2,0.2,3.3
			c0,16.2,0,32.3,0,48.5c0,6.3-2.4,8.7-8.6,8.7c-59.9,0-119.8,0-179.7,0c-23.4,0-41.1-17.8-41.2-41.1c-0.1-22.1,0-44.1,0-66.9
			c-5.1,0-10.1,0-15.1,0c-3.5,0-7,0-10.5,0c-6.3-0.1-9-3.5-7.7-9.5c7.6-33.7,15.2-67.4,22.8-101.1c3.2-14.2,5.2-28.9,12.3-41.9
			c4.3-8,5.2-16,5-24.6C96.8,117.6,97.1,102.9,97.1,87.9z M335.4,67c0-0.3,0-0.6-0.1-0.9c-0.6-0.2-1.3-0.5-2-0.7
			c-41.9-12.8-83.8-25.6-125.7-38.2c-1.9-0.6-4.2-0.3-6.1,0.2c-41.1,12.4-82.2,24.9-123.3,37.4c-1.3,0.4-2.5,0.9-4.4,1.7
			c1.6,0.6,2.5,1,3.4,1.3c41.6,12.7,83.2,25.4,124.9,37.9c2,0.6,4.5,0.3,6.5-0.3c31.3-9.4,62.6-19,93.9-28.5
			C313.5,73.6,324.5,70.3,335.4,67z M49.8,140.4c-3,4.9-5.4,9.1-8.1,13.6c5.6,0,10.7,0,16.3,0C55.2,149.4,52.7,145.2,49.8,140.4z"/>
		<linearGradient id="SVGID_2_" gradientUnits="userSpaceOnUse" x1="299.6" y1="10.227" x2="299.6" y2="424.8932">
			<stop  offset="0" style="stop-color:#EE697C"/>
			<stop  offset="1" style="stop-color:#FBC8C7"/>
		</linearGradient>
		<path class="st1" d="M243.6,343.2c-6.5,0-12.4,0-18.2,0c-18.9-0.2-33.7-14.9-33.8-33.8c-0.1-49.5-0.1-99,0-148.4
			c0-18.8,14.9-33.7,33.8-33.8c49.5-0.1,98.9-0.1,148.4,0c18.9,0,33.7,14.9,33.8,33.8c0.1,49.5,0.1,98.9,0,148.4
			c0,18.9-14.9,33.7-33.8,33.7c-25,0.1-50,0-75.1,0.1c-2.5,0-5.3,0.7-7.5,1.9c-13.5,7.5-26.9,15.2-40.2,23c-3.1,1.8-6.1,3.1-9.4,0.7
			c-3.2-2.4-3.1-5.6-2.1-9.1C241,354.5,242.1,349.1,243.6,343.2z M256.1,349.4c1.9-1,3.2-1.6,4.4-2.3c8.9-5.1,17.7-10.3,26.8-15.1
			c2.5-1.3,5.5-2.2,8.3-2.2c25.7-0.2,51.5-0.1,77.2-0.1c12.7,0,21.3-8.5,21.3-21c0-48.9,0-97.8,0-146.8c0-12.6-8.7-21.2-21.2-21.2
			c-48.6,0-97.3,0-145.9,0c-13.4,0-21.9,8.4-21.9,21.8c0,48.6,0,97.3,0,145.9c0,12.6,8.6,21.2,21.2,21.2c8.4,0,16.9-0.1,25.3,0
			c5.6,0.1,8.4,3.8,7.1,9.3C257.8,342.2,257.1,345.5,256.1,349.4z"/>
		<linearGradient id="SVGID_3_" gradientUnits="userSpaceOnUse" x1="150.25" y1="11.4562" x2="150.25" y2="426.5417">
			<stop  offset="0" style="stop-color:#EE697C"/>
			<stop  offset="1" style="stop-color:#FBC8C7"/>
		</linearGradient>
		<path class="st2" d="M178.9,252.2c0,15.8-13,28.6-28.8,28.5c-15.6-0.1-28.5-13-28.5-28.5c0-16,13-28.9,29.1-28.8
			C166.2,223.6,178.9,236.6,178.9,252.2z M165.4,251.9c-0.1-8.2-6.9-14.9-15.1-15c-8.4,0-15.3,6.9-15.2,15.3c0.1,8.2,6.9,15,15.1,15
			C158.6,267.3,165.5,260.3,165.4,251.9z"/>
		<linearGradient id="SVGID_4_" gradientUnits="userSpaceOnUse" x1="299.55" y1="9.3964" x2="299.55" y2="423.6862">
			<stop  offset="0" style="stop-color:#EE697C"/>
			<stop  offset="1" style="stop-color:#FBC8C7"/>
		</linearGradient>
		<path class="st3" d="M299.5,154.2c4.2,0,8.4-0.1,12.6,0c5,0.1,7.5,2.5,7.6,7.5c0.1,4.5,0.2,9,0,13.5c-0.1,2.6,1.2,3.7,3.2,4
			c1.5,0.2,3.6,0,4.6-0.9c3.3-2.8,6.2-6.1,9.3-9.1c3.8-3.7,7.3-3.8,11-0.1c6,5.9,12,11.9,17.9,17.9c3.5,3.5,3.4,7.1-0.1,10.7
			c-3,3.1-6,6.3-9.3,9.2c-1.8,1.6-2,3-1,5.1c0.9,1.9,1.7,3.2,4.3,3.1c4.5-0.2,9-0.1,13.5-0.1c4.7,0.1,7.3,2.6,7.4,7.3
			c0.1,8.6,0.1,17.1,0,25.7c0,4.9-2.7,7.4-7.7,7.4c-4.5,0.1-9-0.3-13.5,0.1c-1.4,0.1-3.1,1.9-3.8,3.3c-0.5,1.1-0.1,3.2,0.7,4.2
			c2.9,3.3,6.1,6.2,9.1,9.3c3.9,4,4,7.4,0.1,11.3c-5.8,5.9-11.7,11.8-17.6,17.6c-3.7,3.7-7.2,3.6-11-0.1c-3.2-3.1-6.2-6.5-9.6-9.4
			c-0.9-0.8-3.1-1.1-4.2-0.6c-1.4,0.6-3,2.2-3.1,3.5c-0.4,4.6-0.1,9.3-0.1,13.9c-0.1,4.9-2.6,7.5-7.6,7.6c-8.4,0.1-16.9,0.1-25.3,0
			c-5,0-7.5-2.5-7.6-7.5c-0.1-4.5-0.2-9,0-13.5c0.1-2.6-1.2-3.7-3.2-4c-1.5-0.2-3.5,0-4.6,0.9c-3.3,2.8-6.2,6.1-9.3,9.1
			c-3.8,3.7-7.3,3.8-11,0.1c-6-5.9-12-11.9-17.9-17.9c-3.5-3.5-3.4-7.1,0.1-10.7c3-3.1,6-6.3,9.3-9.2c1.8-1.6,2-3,1-5.1
			c-0.9-1.9-1.7-3.2-4.3-3.1c-4.5,0.2-9,0.1-13.5,0c-4.7-0.1-7.3-2.6-7.3-7.3c-0.1-8.6-0.1-17.1,0-25.7c0.1-4.9,2.6-7.3,7.7-7.4
			c4.5-0.1,9,0.2,13.5-0.2c1.3-0.1,3.1-1.6,3.6-2.9c0.5-1.3,0.3-3.6-0.6-4.6c-2.9-3.4-6.3-6.4-9.4-9.6c-3.5-3.6-3.6-7.2-0.1-10.7
			c6-6.1,12.1-12.2,18.2-18.2c3.4-3.3,7-3.2,10.4,0.1c3.2,3.1,6.2,6.5,9.6,9.4c1,0.9,3.1,1.1,4.6,0.9c2-0.3,3.5-1.3,3.3-4
			c-0.3-4.5-0.1-9,0-13.5c0.1-5,2.5-7.4,7.5-7.6c2.1-0.1,4.2,0,6.3,0C295.3,154.2,297.4,154.2,299.5,154.2z M292.8,167.9
			c0,4.9-0.1,9.2,0,13.6c0.1,4.4-1.7,7.1-6,8.4c-3.6,1.1-7.1,2.6-10.5,4.4c-3.9,2.1-6.9,1.5-9.8-1.5c-3.2-3.3-6.4-6.6-9.3-9.6
			c-3.6,3.4-6.7,6.3-10.3,9.6c3.3,3.1,6.4,5.9,9.3,8.9c4.2,4.1,4.4,6,1.9,11.1c-1.5,3-2.8,6.1-3.9,9.3c-1.8,5.3-3.3,6.5-8.8,6.5
			c-4.4,0-8.9,0-13.2,0c0,4.9,0,9,0,13.5c5,0,9.8,0,14.5,0c3.7,0,5.9,1.9,7.2,5.3c1.3,3.7,2.6,7.4,4.4,10.9c2.1,4,1.7,7.2-1.6,10.2
			c-3.4,3-6.9,6-10.1,8.9c3.9,4,6.9,7,10.1,10.3c3.2-3.3,6.5-6.5,9.7-9.9c3-3.1,6-3.5,9.9-1.4c3.3,1.8,6.9,3.2,10.5,4.3
			c4.1,1.3,6,3.7,5.9,8c-0.1,4.6,0,9.2,0,13.7c4.8,0,9.1,0,13.5,0c0-5,0-9.6,0-14.2c0-3.9,1.9-6.2,5.6-7.4c3.7-1.3,7.4-2.6,10.9-4.5
			c3.9-2,6.9-1.5,9.9,1.5c3.2,3.3,6.4,6.6,9.2,9.7c3.7-3.4,6.8-6.4,10.3-9.7c-3.4-3.2-6.6-6.1-9.7-9.2c-3.8-3.8-4-5.7-1.7-10.5
			c1.6-3.3,3.1-6.6,4.1-10.1c1.3-4.4,3.9-6.2,8.3-6.1c4.5,0.1,8.9,0,13.5,0c0-4.6,0-8.9,0-13.5c-4.7,0-9.2-0.1-13.7,0
			c-4.3,0.1-6.8-1.7-8.1-5.8c-1.1-3.6-2.5-7.2-4.3-10.5c-2.2-4-1.6-7.2,1.6-10.2c3.4-3.1,6.7-6.2,9.6-8.9c-3.7-3.8-6.5-6.8-9.9-10.3
			c-3,3.2-6.1,6.4-9.2,9.6c-3,3.2-6.1,3.9-10.2,1.6c-3.3-1.8-6.9-3.2-10.5-4.3c-4.1-1.3-6-3.8-5.9-8.1c0.1-4.6,0-9.2,0-13.8
			C301.6,167.9,297.4,167.9,292.8,167.9z"/>
		<linearGradient id="SVGID_5_" gradientUnits="userSpaceOnUse" x1="225.3" y1="12.6169" x2="225.3" y2="421.0043">
			<stop  offset="0" style="stop-color:#EE697C"/>
			<stop  offset="1" style="stop-color:#FBC8C7"/>
		</linearGradient>
		<path class="st4" d="M218.9,154.3c4.4,0,8.5,0,12.8,0c0,4.3,0,8.6,0,13.1c-4.2,0-8.4,0-12.8,0C218.9,163,218.9,158.7,218.9,154.3z
			"/>
		<linearGradient id="SVGID_6_" gradientUnits="userSpaceOnUse" x1="373.8" y1="12.6373" x2="373.8" y2="420.9212">
			<stop  offset="0" style="stop-color:#EE697C"/>
			<stop  offset="1" style="stop-color:#FBC8C7"/>
		</linearGradient>
		<path class="st5" d="M380.3,316c-4.4,0-8.6,0-13,0c0-4.3,0-8.6,0-13.1c4.3,0,8.5,0,13,0C380.3,307.3,380.3,311.4,380.3,316z"/>
		<linearGradient id="SVGID_7_" gradientUnits="userSpaceOnUse" x1="299.6" y1="8.9388" x2="299.6" y2="424.0238">
			<stop  offset="0" style="stop-color:#EE697C"/>
			<stop  offset="1" style="stop-color:#FBC8C7"/>
		</linearGradient>
		<path class="st6" d="M272.6,235.2c0-15,12.1-27,27.1-27c14.7,0,26.8,12.1,26.9,26.8c0.1,15.1-12.2,27.3-27.3,27.2
			C284.5,262.1,272.5,250,272.6,235.2z M299.5,248.7c7.3,0.1,13.4-5.9,13.5-13.2c0.1-7.5-6-13.7-13.5-13.7
			c-7.3,0-13.4,5.9-13.5,13.2C285.9,242.5,292,248.7,299.5,248.7z"/>
	</g>
</g>
</svg>
