<?xml version="1.0" encoding="utf-8"?>
<!-- Generator: Adobe Illustrator 23.0.1, SVG Export Plug-In . SVG Version: 6.00 Build 0)  -->
<svg version="1.1" id="Layer_1" xmlns="http://www.w3.org/2000/svg" xmlns:xlink="http://www.w3.org/1999/xlink" x="0px" y="0px"
	 viewBox="0 0 435 434.8" style="enable-background:new 0 0 435 434.8;" xml:space="preserve">
<style type="text/css">
	.st0{fill:url(#SVGID_1_);}
	.st1{fill:url(#SVGID_2_);}
	.st2{fill:url(#SVGID_3_);}
	.st3{fill:url(#SVGID_4_);}
	.st4{fill:url(#SVGID_5_);}
</style>
<g id="DoGBJH.tif">
	<g>
		<g>
			<linearGradient id="SVGID_1_" gradientUnits="userSpaceOnUse" x1="243.7793" y1="15.3472" x2="246.7518" y2="421.5849">
				<stop  offset="0" style="stop-color:#CC7686"/>
				<stop  offset="1" style="stop-color:#38BCB9"/>
			</linearGradient>
			<path class="st0" d="M228.6,422.3h-9.4c-0.4,0-0.9,0-1.3-0.1c-2.6-0.6-5.2-1.1-7.7-1.6c-5.7-1.2-11.7-2.4-17.5-4
				c-26-7.5-50.3-18-72.8-28.2c0,0,0,0,0,0c-5.7-2.6-8.5-7.6-7.7-13.8l0.6-5c1-8.6,2.1-17.4,3.3-26.1c1.1-8.1,2.3-16.3,3.4-24.2
				c1.1-8,2.3-16.2,3.4-24.3c0.1-1.1,0.1-2.4,0-3.9c0-0.8-0.1-1.6-0.1-2.3c0-7.2,4.5-12.4,11.7-13.5c20.5-3,39.7,0.4,57,10.2
				c11.7,6.6,24.5,9.8,35.6,12c10.7,2.2,22.1,4.8,32.6,10.7c5.2,2.9,9.8,6.4,13.4,10.2c2.6,2.8,4.5,6.1,5.7,9.8c4-1.9,8.7-3,12.7-4
				c0.8-0.2,1.5-0.4,2.1-0.5c13.8-3.6,29.5-7.6,45.8-5.9c6.3,0.7,13.2,2.5,20.6,5.4c10.2,4,17.2,12.2,20.3,23.7
				c0.1,0.5,0.2,1,0.2,1.6v5.4c0,1.7-0.7,3.3-2,4.5c-0.4,0.4-0.9,0.9-1.4,1.4c-1.4,1.4-3.2,3.2-5.6,4.4c-15.4,7.6-31.5,15.3-47.9,23
				l-1.7,0.8c-22.4,10.6-45.6,21.5-70,29c-5.1,1.6-10.3,2.7-15.4,3.8c-2.3,0.5-4.5,1-6.8,1.5C229.5,422.3,229,422.3,228.6,422.3z
				 M219.8,410.3h8.1c2.1-0.5,4.2-1,6.3-1.4c5-1.1,9.8-2.2,14.5-3.6c23.5-7.2,46.3-17.9,68.3-28.3l1.7-0.8
				c16.3-7.7,32.4-15.4,47.7-22.9c0.6-0.3,1.5-1.2,2.3-2v-2c-2.2-7.4-6.5-12.4-12.9-14.9c-6.3-2.5-12.2-4.1-17.4-4.6
				c-14.2-1.5-28.7,2.3-41.6,5.6c-0.7,0.2-1.5,0.4-2.4,0.6c-6.8,1.6-10.9,3-12.2,4.2c-2.4,10.4-4.1,13.7-8.3,15.8
				c-0.1,0-0.2,0.1-0.2,0.1c-10.4,6.3-18.5,9.6-30.9,9.1c-6-0.2-12.2-0.7-19.2-1.4c-21.9-2.2-43.7-7-64.8-14.1
				c-7.4-2.5-11.3-9.6-9.2-16.6c0.8-2.8,2.9-4.6,5.5-4.9c4.5-0.6,6.9,3.2,9,6.5c0.8,1.3,2.4,3.8,3.3,4.6
				c23.6,7.6,48.7,12.3,74.6,13.8c5.8,0.4,11.5-0.7,17.5-3.3c5.7-2.5,7.7-6.7,8.3-9.9c1-4.6-0.4-9.8-3.5-13.1
				c-2.7-2.9-6.3-5.6-10.4-7.9c-9-5-19.3-7.4-29.1-9.4c-12-2.4-26-5.9-39.1-13.4c-15.2-8.6-31.3-11.5-49.4-8.8
				c-1.4,0.2-1.4,0.4-1.4,1.6c0,0.6,0,1.3,0.1,2c0.1,1.8,0.1,3.8-0.2,5.9c-1.1,8.1-2.3,16.4-3.4,24.4c-1.1,7.9-2.3,16.1-3.4,24.2
				c-1.2,8.6-2.2,17.4-3.3,25.9l-0.6,5c-0.1,1.1,0,1.1,0.8,1.5c22,10,45.9,20.3,71.1,27.6c5.4,1.5,10.8,2.6,16.5,3.8
				C214.9,409.3,217.3,409.8,219.8,410.3z M167.5,339.2L167.5,339.2L167.5,339.2z"/>
		</g>
		<g>
			<linearGradient id="SVGID_2_" gradientUnits="userSpaceOnUse" x1="258.2101" y1="15.2416" x2="261.1826" y2="421.4793">
				<stop  offset="0" style="stop-color:#CC7686"/>
				<stop  offset="1" style="stop-color:#38BCB9"/>
			</linearGradient>
			<path class="st1" d="M292.5,268c-7.7,0-15.5,0-23.2,0l-23.2,0c-17.6,0-35.2,0-52.8,0c-15.5,0-25.3-9.6-25.6-25.1l0,0
				c-0.3-16,5-28.2,15.8-36.4c6.6-4.9,14.2-8.5,20.1-11c20.1-8.6,40.2-12.6,59.7-12c23.7,0.8,46.5,7.2,67.5,18.9
				c11.1,6.2,18.2,16.4,20.6,29.4c0,0.1,0.1,0.2,0.1,0.3c0.1,0.3,0.2,0.5,0.3,0.8c0.2,0.6,0.3,1.3,0.3,1.9v12.5
				c0,0.7-0.1,1.4-0.4,2.1l-0.3,0.8c-0.2,0.4-0.3,0.9-0.5,1.3c-3.3,10-12.3,16.3-23.5,16.3C315.7,268,304.1,268,292.5,268z
				 M259.2,195.4c-16.6,0-33.7,3.7-50.9,11.1c-5.3,2.3-12.1,5.4-17.6,9.5c-7.8,5.9-11.3,14.3-11.1,26.6l0,0
				c0.2,9,4.6,13.4,13.6,13.4c17.6,0,35.2,0,52.8,0l23.3,0c19.4,0,38.8,0,58.1,0c6.2,0,10.5-2.9,12.1-8c0.2-0.6,0.4-1.1,0.6-1.6V236
				c-0.2-0.5-0.4-1.1-0.5-1.8c-1.8-9.7-6.6-16.7-14.7-21.2c-19.4-10.8-40.3-16.7-62.1-17.4C261.6,195.4,260.4,195.4,259.2,195.4z"/>
		</g>
		<g>
			<linearGradient id="SVGID_3_" gradientUnits="userSpaceOnUse" x1="65.2381" y1="16.6536" x2="68.2105" y2="422.8913">
				<stop  offset="0" style="stop-color:#CC7686"/>
				<stop  offset="1" style="stop-color:#38BCB9"/>
			</linearGradient>
			<path class="st2" d="M36.9,393.4c-7.9,0-11.2-6.2-12.2-8.3c-0.4-0.9-0.7-1.8-0.7-2.8V270.7c0-1.1,0.3-2.2,0.9-3.2
				c4.4-7.1,8.2-8.7,16.3-7c16.6,3.5,32.9,7,49.4,10.6c13.9,3,22.2,15.3,20.3,29.9c-3.3,25.5-6.8,50.9-9.5,70.2
				c-1.7,12.5-12.1,22-24.2,22.1c-7.5,0.1-14.9,0.1-22.1,0.1C49.1,393.4,43.1,393.4,36.9,393.4C37,393.4,36.9,393.4,36.9,393.4z
				 M36,380.7c0.4,0.5,0.5,0.6,0.6,0.6c0,0,0.1,0,0.3,0c6.2,0,12.2,0,18.2,0c7.2,0,14.6,0,22-0.1c6.1-0.1,11.5-5.1,12.4-11.7
				c2.7-19.3,6.2-44.7,9.5-70.1c1.1-8.5-3.1-14.9-11-16.6c-16.5-3.6-32.7-7-49.3-10.6c-1.2-0.3-1.9-0.4-2.3-0.4
				c-0.1,0.1-0.3,0.3-0.4,0.6V380.7z"/>
		</g>
		<g>
			<linearGradient id="SVGID_4_" gradientUnits="userSpaceOnUse" x1="258.9835" y1="15.2359" x2="261.956" y2="421.4737">
				<stop  offset="0" style="stop-color:#CC7686"/>
				<stop  offset="1" style="stop-color:#38BCB9"/>
			</linearGradient>
			<path class="st3" d="M259.9,173.9c-13.1,0-25.5-5-34.7-14.1c-9.3-9.1-14.4-21.3-14.4-34.4v0c0-12.7,5-24.6,14.1-33.8
				c9.3-9.3,21.8-14.5,35-14.5c0,0,0.1,0,0.1,0c26.9,0,48.9,21.7,48.9,48.4c0,13-5.1,25.1-14.3,34.2
				C285.3,168.9,273,173.9,259.9,173.9C259.9,173.9,259.9,173.9,259.9,173.9z M259.8,89.2c-10,0-19.4,3.9-26.5,11
				c-6.8,6.8-10.6,15.8-10.6,25.3v0c0,20.4,16.3,36.5,37.1,36.5c0,0,0,0,0,0c20.7,0,36.9-16,36.9-36.3
				C296.8,105.6,280.2,89.2,259.8,89.2C259.9,89.2,259.9,89.2,259.8,89.2z"/>
		</g>
	</g>
	<g>
		<linearGradient id="SVGID_5_" gradientUnits="userSpaceOnUse" x1="365.8243" y1="14.4542" x2="368.7968" y2="420.6919">
			<stop  offset="0" style="stop-color:#CC7686"/>
			<stop  offset="1" style="stop-color:#38BCB9"/>
		</linearGradient>
		<path class="st4" d="M358.2,46.5c0-6.6,0-13.7,0-20.9c0-6.5,2.8-10.1,7.8-10.2c5-0.1,8,3.6,8.1,9.9c0,7.2,0,14.3,0,22.2
			c8.1,0,15.9,0,23.7,0c4.5,0,7.4,2.3,8.2,6.6c0.8,3.9-1,7-4.6,8.5c-1.6,0.7-3.6,0.8-5.4,0.8c-7.1,0.1-14.3,0-21.9,0
			c0,7.7,0,14.8,0,22c0,6.4-2.9,10.1-7.9,10.2c-5,0.1-8-3.7-8-10c0-7.2,0-14.3,0-22.2c-8,0-15.6,0.1-23.2,0
			c-5.6-0.1-9.3-3.7-8.9-8.6c0.4-4.3,3.7-7.2,8.7-7.3c7.5-0.1,15-0.1,22.5-0.2C357.5,47.4,357.6,47.2,358.2,46.5z"/>
	</g>
</g>
</svg>
