<?xml version="1.0" encoding="utf-8"?>
<!-- Generator: Adobe Illustrator 23.0.1, SVG Export Plug-In . SVG Version: 6.00 Build 0)  -->
<svg version="1.1" id="Layer_1" xmlns="http://www.w3.org/2000/svg" xmlns:xlink="http://www.w3.org/1999/xlink" x="0px" y="0px"
	 viewBox="0 0 135.4 132.7" style="enable-background:new 0 0 135.4 132.7;" xml:space="preserve">
<style type="text/css">
	.st0{fill:url(#SVGID_1_);}
	.st1{fill:url(#SVGID_2_);}
</style>
<g>
	<g>
		<linearGradient id="SVGID_1_" gradientUnits="userSpaceOnUse" x1="67.6791" y1="130.9634" x2="67.6791" y2="1.7613">
			<stop  offset="0" style="stop-color:#FBC8C7"/>
			<stop  offset="1" style="stop-color:#EE697C"/>
		</linearGradient>
		<path class="st0" d="M67.7,131c-35.6,0-64.6-29-64.6-64.6s29-64.6,64.6-64.6c35.6,0,64.6,29,64.6,64.6S103.3,131,67.7,131z
			 M67.7,3.8C33.2,3.8,5.1,31.8,5.1,66.4c0,34.5,28.1,62.6,62.6,62.6s62.6-28.1,62.6-62.6C130.3,31.8,102.2,3.8,67.7,3.8z"/>
	</g>
	<g id="V5joPy.tif">
		<g>
			<linearGradient id="SVGID_2_" gradientUnits="userSpaceOnUse" x1="66.8833" y1="129.2849" x2="69.5255" y2="3.3402">
				<stop  offset="0" style="stop-color:#FBC8C7"/>
				<stop  offset="1" style="stop-color:#EE697C"/>
			</linearGradient>
			<path class="st1" d="M86.6,103.4c-7.1-0.5-12.1-2.6-16.8-5.5c-5.4-3.3-10.2-7.4-14.8-11.7c-4.7-4.5-9.5-8.9-13.7-13.9
				c-3.2-3.8-6.2-7.9-8.3-12.4c-1.9-4.1-3-8.5-2.8-13.1c0.3-5,2.5-9.2,5.8-12.8c1.2-1.3,2.7-2.5,4.1-3.5c2.5-1.8,5.1-1.8,7.8-0.4
				c4.6,2.4,8,6.1,10.2,10.8c0.9,1.8,0.9,3.7-0.3,5.5c-1.1,1.7-2.2,3.3-3.3,5c-0.7,1-1.3,2-1.9,3.1c-0.6,1.1-0.7,2.3,0.2,3.3
				c2.2,2.7,4.4,5.5,6.8,8.1c4.6,4.9,9.5,9.4,14.8,13.4c1,0.8,2.2,1.4,3.2,2.2c0.9,0.6,1.8,0.6,2.7,0.1c1.2-0.7,2.3-1.5,3.4-2.3
				c1.6-1.1,3.1-2.3,4.7-3.5c1.8-1.3,3.7-1.3,5.7-0.5c4.6,2,8.3,5.1,10.9,9.4c1.7,2.7,1.8,5.5,0,8.2
				C100.3,99.8,93.9,103.7,86.6,103.4z M85.4,100.9c1.2,0,2.4,0,3.6-0.1c5.8-0.8,10.1-4.1,13.5-8.7c1.6-2.2,1.5-4.4,0-6.7
				c-2.3-3.3-5.2-5.8-8.8-7.6c-1.7-0.8-3.2-0.8-4.7,0.4c-1.5,1.2-3,2.4-4.5,3.5c-1.1,0.8-2.2,1.5-3.4,2.1c-1.6,0.8-3.2,0.8-4.7-0.2
				c-0.9-0.6-1.8-1.1-2.7-1.7c-6.8-5-12.8-10.7-18.4-16.9c-1.8-2-3.4-4.2-5-6.3c-1.1-1.4-1.2-3.1-0.4-4.6c0.8-1.5,1.7-3,2.7-4.5
				c1-1.5,2-3,3-4.5c0.6-1,0.7-2,0.2-3c-2-4.3-5.1-7.7-9.4-9.9c-1.6-0.8-3.3-0.8-4.8,0.3c-1.2,0.9-2.5,1.8-3.5,2.9
				c-3.3,3.5-5.5,7.5-5.6,12.4c0,2.9,0.5,5.7,1.5,8.4c1.8,5.1,4.9,9.5,8.4,13.7c3.7,4.4,7.8,8.4,12,12.3c5.1,4.9,10.3,9.6,16.4,13.4
				C75.2,98.3,80,100.4,85.4,100.9z"/>
		</g>
	</g>
</g>
</svg>
