<?xml version="1.0" encoding="utf-8"?>
<!-- Generator: Adobe Illustrator 23.0.1, SVG Export Plug-In . SVG Version: 6.00 Build 0)  -->
<svg version="1.1" id="Layer_1" xmlns="http://www.w3.org/2000/svg" xmlns:xlink="http://www.w3.org/1999/xlink" x="0px" y="0px"
	 viewBox="0 0 416.6 240.4" style="enable-background:new 0 0 416.6 240.4;" xml:space="preserve">
<style type="text/css">
	.st0{fill:#E56574;}
	.st1{fill:#FFFFFF;}
	.st2{fill:#06C9C3;}
</style>
<g>
	<polyline class="st0" points="113.5,234.8 1.6,234.8 1.6,2.2 225.8,2.2 225.8,106 	"/>
	<g>
		<circle class="st1" cx="57.6" cy="34.3" r="8.5"/>
		<circle class="st1" cx="80" cy="34.3" r="8.5"/>
		<circle class="st1" cx="102.5" cy="34.3" r="8.5"/>
		<circle class="st1" cx="124.9" cy="34.3" r="8.5"/>
		<circle class="st2" cx="147.3" cy="34.3" r="8.5"/>
		<circle class="st1" cx="57.6" cy="55.2" r="8.5"/>
		<ellipse class="st1" cx="57.6" cy="76.2" rx="8.5" ry="8.5"/>
		<ellipse class="st1" cx="57.6" cy="97.1" rx="8.5" ry="8.5"/>
		<ellipse class="st1" cx="57.6" cy="118.1" rx="8.5" ry="8.5"/>
		<circle class="st1" cx="57.6" cy="139" r="8.5"/>
		<circle class="st1" cx="57.6" cy="159.9" r="8.5"/>
		<ellipse class="st1" cx="57.6" cy="180.9" rx="8.5" ry="8.5"/>
		<ellipse class="st1" cx="57.6" cy="201.8" rx="8.5" ry="8.5"/>
		<circle class="st1" cx="80" cy="55.2" r="8.5"/>
		<ellipse class="st1" cx="80" cy="76.2" rx="8.5" ry="8.5"/>
		<ellipse class="st1" cx="80" cy="97.1" rx="8.5" ry="8.5"/>
		<ellipse class="st1" cx="80" cy="118.1" rx="8.5" ry="8.5"/>
		<circle class="st1" cx="80" cy="139" r="8.5"/>
		<circle class="st1" cx="80" cy="159.9" r="8.5"/>
		<ellipse class="st1" cx="80" cy="180.9" rx="8.5" ry="8.5"/>
		<ellipse class="st1" cx="80" cy="201.8" rx="8.5" ry="8.5"/>
		<circle class="st1" cx="102.5" cy="55.2" r="8.5"/>
		<ellipse class="st1" cx="102.5" cy="76.2" rx="8.5" ry="8.5"/>
		<ellipse class="st1" cx="102.5" cy="118.1" rx="8.5" ry="8.5"/>
		<circle class="st1" cx="102.5" cy="139" r="8.5"/>
		<circle class="st1" cx="102.5" cy="159.9" r="8.5"/>
		<circle class="st2" cx="124.9" cy="55.2" r="8.5"/>
		<ellipse class="st1" cx="124.9" cy="76.2" rx="8.5" ry="8.5"/>
		<ellipse class="st1" cx="124.9" cy="97.1" rx="8.5" ry="8.5"/>
		<ellipse class="st1" cx="124.9" cy="118.1" rx="8.5" ry="8.5"/>
		<circle class="st1" cx="124.9" cy="139" r="8.5"/>
		<circle class="st1" cx="124.9" cy="159.9" r="8.5"/>
		<circle class="st2" cx="147.3" cy="55.2" r="8.5"/>
		<ellipse class="st2" cx="147.3" cy="76.2" rx="8.5" ry="8.5"/>
		<ellipse class="st1" cx="147.3" cy="97.1" rx="8.5" ry="8.5"/>
		<ellipse class="st1" cx="147.3" cy="118.1" rx="8.5" ry="8.5"/>
		<circle class="st1" cx="147.3" cy="139" r="8.5"/>
		<circle class="st1" cx="147.3" cy="159.9" r="8.5"/>
		<circle class="st2" cx="169.7" cy="55.2" r="8.5"/>
		<ellipse class="st1" cx="169.7" cy="76.2" rx="8.5" ry="8.5"/>
		<ellipse class="st1" cx="169.8" cy="97.1" rx="8.5" ry="8.5"/>
		<ellipse class="st1" cx="169.8" cy="118.1" rx="8.5" ry="8.5"/>
		<circle class="st1" cx="169.7" cy="139" r="8.5"/>
	</g>
	<g>
		<path class="st2" d="M129.3,236.7l-0.9-0.8c-0.8-0.7-1-1.9-0.3-2.7l113.8-131.1c0.8-0.9,2.1-0.9,3-0.1l14.2,13.4
			c1.3,1.2,3.4,0.3,3.4-1.3v-0.4c0-1,0.9-1.9,2-1.9h10.6c1.1,0,2,0.9,2,1.9v18.6c0,0.6,0.3,1.1,0.8,1.5l12.9,9.4
			c0.4,0.3,0.8,0.4,1.2,0.4h119.1c1.1,0,2,0.9,2,1.9v1.2c0,1-0.9,1.9-2,1.9H290.4c-0.4,0-0.9-0.1-1.2-0.4l-16.4-12
			c-0.5-0.4-0.8-0.9-0.8-1.5v-16c0-1-0.9-1.9-2-1.9l0,0c-1.1,0-2,0.9-2,1.9v7.5c0,1.7-2.2,2.5-3.5,1.3l-19.1-18
			c-0.8-0.8-2.2-0.7-3,0.1L132.2,236.4C131.5,237.2,130.2,237.3,129.3,236.7z"/>
	</g>
	<g>
		<path class="st2" d="M229.3,173.3c2.9,2.6,4.3,6.3,4.3,11.4c0,3.2-0.7,6-2.1,8.4c-1.4,2.4-3.4,4.3-6,5.5c-2.6,1.3-5.7,2-9.4,2
			l-2.7-0.1c-1.7-0.1-2.9-0.1-3.7-0.1c-3,0-5.3,0.1-6.8,0.1v-0.9c0.9-0.1,1.7-0.2,2.1-0.3c0.5-0.2,0.7-0.5,0.9-1
			c0.1-0.5,0.3-1.3,0.3-2.4v-21.9c0-1.1-0.1-1.9-0.3-2.4c-0.1-0.5-0.5-0.9-0.9-1c-0.5-0.2-1.1-0.3-2.1-0.3v-0.9
			c1.2,0.1,3,0.1,5.3,0.1h1.3l1.7-0.1c2.4-0.1,4.1-0.1,5.1-0.1C222.2,169.3,226.5,170.7,229.3,173.3z M214.4,170.5
			c-0.5,0.2-0.8,0.6-0.9,1.1c-0.1,0.5-0.3,1.3-0.3,2.4v22c0,1.1,0.1,1.9,0.3,2.4s0.5,0.9,0.9,1.1c0.5,0.2,1.1,0.3,2.1,0.3
			c3.5,0,6.1-1.3,7.6-3.7c1.5-2.5,2.3-6.2,2.3-11.2c0-5-0.8-8.7-2.3-11.1c-1.5-2.3-4.1-3.5-7.6-3.5
			C215.5,170.1,214.8,170.3,214.4,170.5z"/>
		<path class="st2" d="M246.9,187.9v7.7c0,1.2,0.1,2,0.4,2.6c0.3,0.5,0.7,0.9,1.3,1.1c0.6,0.2,1.6,0.3,3,0.3v0.9
			c-3.6-0.1-6.3-0.1-8-0.1c-1.5,0-3.3,0-5.5,0.1l-1.4,0.1v-0.9c0.9-0.1,1.7-0.2,2.1-0.3c0.5-0.2,0.7-0.5,0.9-1
			c0.1-0.5,0.3-1.3,0.3-2.4v-21.9c0-1.1-0.1-1.9-0.3-2.4c-0.1-0.5-0.5-0.9-0.9-1c-0.5-0.2-1.1-0.3-2.1-0.3v-0.9
			c1.5,0.1,3.7,0.1,6.7,0.1l4.9-0.1c0.6,0,1.3-0.1,2-0.1c3.9,0,7,0.8,9.1,2.3c2.1,1.5,3.1,3.7,3.1,6.3c0,1.6-0.4,3.1-1.2,4.6
			c-0.8,1.5-2.2,2.7-4.1,3.7c-1.9,1-4.5,1.5-7.8,1.5L246.9,187.9L246.9,187.9z M247.9,170.5c-0.3,0.2-0.6,0.6-0.8,1.1
			c-0.1,0.5-0.2,1.3-0.2,2.4v13h1.9c2.4,0,4-0.7,4.9-2.3c0.9-1.5,1.3-3.6,1.3-6.2c0-2.9-0.4-4.9-1.3-6.3c-0.9-1.3-2.2-2-4.2-2
			C248.9,170.3,248.3,170.3,247.9,170.5z"/>
	</g>
	<g>
		<path class="st0" d="M268.4,197c0.1,0.6-0.1,1.4-0.7,2.6c-0.8,1.7-2.2,4.6-3.2,7.6c-0.1,0.4-0.1,0.5,0.4,0.5c1.3,0,3.6,0,4.4-0.1
			c0.8-0.1,0.9,0.2,0.4,0.7c-1.5,0.8-3.4,1.2-5.4,1.4c-0.5,0-0.6,0.1-0.7,0.5c-0.2,0.6-0.5,1.4-1.1,3.7c-0.1,0.6,0,0.7,0.4,0.8
			c0.5,0,0.7,0.5,0.5,1.1c-0.6,2.1-2.6,4.9-3.3,5.4c-0.4,0.4-0.7,0.5-0.9,0.5c-0.7,0-0.9-1.4-0.7-2.6c0.2-1.1,2.1-7.8,2.5-8.6
			c0.1-0.4,0-0.6-0.2-0.6c-0.7,0-9.8,0.2-11,0.2c-0.5,0-0.6,0.1-0.9,0.6c-0.7,1.4-1.8,3.9-2.1,5.2c-0.1,0.6,0,0.7,0.4,0.8
			c0.6,0.1,0.9,0.8,0.6,1.7c-0.2,0.8-1.1,1.7-1.4,2.2c-0.5,0.6-1.3,1.2-2.1,1.2c-1.1,0-1.1-1.4-0.6-3.6c0.5-2.1,2-6.6,2.2-7.3
			c0.2-0.5,0.1-0.7-0.1-0.7c-0.6-0.2-0.9-0.5-0.9-0.9c0-0.6,1.4-1.2,2-1.4c0.5-0.1,0.6-0.2,0.7-0.7c0.4-0.8,3.4-9,3.8-10.1
			c0.4-0.8,0.7-1.4,1.4-1.4s2.4,1.1,1.3,3.3c-0.4,0.6-3.1,7.1-3.4,7.9c-0.2,0.6-0.1,0.6,0.4,0.6c0.8,0,9.8,0,10.5,0
			c0.6,0,0.6,0,0.7-0.5c0.4-1.1,3-8.6,4-10.3c0.6-0.9,0.8-1.1,1.5-1.1C267.8,195.7,268.3,196.4,268.4,197z"/>
		<path class="st0" d="M270.1,211.8c0.8-1.7,2.8-4.6,3.4-5.3c0.4-0.6,0.6-0.9,0.6-1.7c0-0.7,0.4-1.2,0.7-1.5
			c0.4-0.4,0.7-0.5,1.3-0.5s0.8-0.2,1.2-0.6c0.4-0.6,0.9-0.8,1.5-0.8c1.1,0,1.4,0.6,1.4,1.3c0,0.2,0,0.6,0.2,0.8
			c1.3,0.9,2.6,2.6,2.6,5.6c0,1.5-1.1,4.9-2.8,6.9c-2.8,3.7-6.5,5.3-9,5.3c-1.3,0-2.8-1.7-2.8-3.4
			C268.5,216,269.5,213.5,270.1,211.8z M273,218.8c0.9,0,2.2-0.5,3.3-1.7c1.8-1.7,4.1-5.7,4.1-8.3c0-1.5-0.2-3.6-2.1-3.6
			c-0.7,0-1.3,0.6-2.2,1.8c-1.7,2-4.5,6.6-4.5,9.8C271.7,218.1,272.3,218.8,273,218.8z"/>
		<path class="st0" d="M302.9,205.1c-0.6,1.3-3,8.3-3.3,9.2c-0.1,0.6-0.1,0.9,0,1.1c0.2,0.1,0.6-0.1,1.1-0.6
			c3.6-3.9,9.6-10.5,10.3-11.2c0.7-0.7,1.2-0.9,1.5-0.9c0.7,0,1.5,1.1,1.5,2c0,0.6-0.4,0.8-0.8,1.2c-0.4,0.4-0.7,0.6-1.1,1.3
			c-0.6,1.2-1.7,4-2.2,7.2c-0.5,3.1-0.2,4.5,1.4,4.5c2.1,0,5.2-2.5,9.9-8.6c0.5-0.5,0.7-0.5,0.9-0.1c0.1,0.4,0,0.9-0.6,1.8
			c-4.3,6.9-8.8,9.6-11.4,9.6c-2,0-3.7-2.1-3.2-6.3c0.2-2.1,0.7-3.9,1.1-5.3c0.1-0.6,0-0.7-0.6,0c-1.9,2.1-7.1,8.2-8.8,9.7
			c-1.1,1.1-1.7,1.4-2.1,1.4c-0.9,0-1.1-2.2-0.4-4.9c0.4-1.3,1.7-5.4,2-6.7c0.2-0.8,0.2-1.1,0-1.3c-0.1-0.1-0.6,0.1-0.9,0.6
			c-1.2,0.8-7.9,9.3-9.3,11c-0.7,0.8-1.3,1.4-1.8,1.4c-0.7,0-1.5-1.2-1.2-3.7c0.2-1.4,1.4-5.4,2.7-9.6c0.1-0.5,0.1-0.6,0.2-0.9
			c0-0.4,0.1-1.1,0.4-2c0.4-1.2,0.7-3.2,1.8-3.2c0.4,0,0.6,0.1,0.9,0.6c0.7,0.8,1.1,1.7,0.5,3c-1.1,2-2.5,7.2-3,9.1
			c-0.5,1.4,0,1.8,0.6,1.1c2.6-3.2,5.4-6.6,8.2-9.3c1.4-1.5,2.2-2.2,3-2.8c0.7-0.6,1.3-1.1,1.7-1.1
			C302.6,202,303.6,203.2,302.9,205.1z"/>
		<path class="st0" d="M322.3,207.2c1.1-1.5,4-5.3,5.9-5.3c0.7,0,1.1,0.5,1.2,0.9c0,0.1,0.1,0.4,0.6,0.5c1.2,0,2.2,0.9,2.2,2.6
			c0,1.7-0.7,3.4-1.8,4.5c-1.4,1.7-3.4,3.1-6,3.1c-0.6,0-1.1-0.2-1.4-0.5c-0.2-0.1-0.4-0.1-0.6,0.2c-0.2,0.6-0.4,1.4-0.4,2.4
			c0,2.1,1.1,3.2,2.7,3.2c3.9,0,9.9-4.4,13.1-7.9c0.4-0.4,0.6-0.4,0.7,0c0.1,0.4-0.1,1.1-0.6,1.7c-3.3,4.5-9.7,8.6-14.4,8.6
			c-2.1,0-4.5-1.1-4.5-5.1C319,213.8,320.3,210.2,322.3,207.2z M329.4,206.8c0-1.3-0.7-2-1.4-2c-1.4,0-3.8,3.7-4.5,5.7
			c-0.1,0.4,0.1,0.6,0.8,0.6C326.9,211.1,329.4,209,329.4,206.8z"/>
		<path class="st0" d="M349.3,204c0,1.2-0.9,2-1.7,2.4c-0.6,0.4-1.1,0.4-1.3,0.1c-0.2-0.2-0.4-0.6-0.2-1.1c0-0.6-0.2-0.9-0.8-0.9
			c-1.1,0-3.2,1.7-4.4,3.6c-2.1,3-2.5,5.7-2.5,7.3c0,2.1,1.1,3.3,2.6,3.3c3.9,0,9.8-4.4,12.9-7.7c0.5-0.5,0.8-0.5,0.9-0.1
			c0.1,0.4-0.1,0.9-0.6,1.7c-3.3,4.4-10.1,8.6-14.6,8.6c-2,0-4.5-1.1-4.5-5.1c0-2.4,1.1-6.3,4-9.7c2.2-2.5,5.4-4.5,7.7-4.5
			C348.6,202,349.3,203.1,349.3,204z"/>
		<path class="st0" d="M365,203.1c0,0.2,0.2,0.2,0.5,0.1c0.4-0.2,0.7-0.2,1.1,0c0.8,0.5,0.7,1.1,0.5,1.5c-1.7,3.6-2.6,6.6-2.6,9.7
			c0,2.4,0.4,4.1,1.7,4.1c2.2,0,6.4-4.9,9-8.3c0.4-0.6,0.8-0.5,0.8,0s-0.1,1.1-0.5,1.9c-2,3.9-7.6,9.3-10.4,9.3
			c-1.3,0-2.8-1.7-3.1-3.8c-0.1-1.1-0.1-2.6-0.1-3.2c0-0.4-0.1-0.5-0.5-0.1c-0.7,1.1-3.8,4.4-5.2,5.6c-1.3,1.1-2.2,1.7-3.1,1.7
			c-0.5,0-2.2-0.6-2.2-2.6c0-0.9,0.4-2.6,2-5.8c1.4-2.7,3.9-6.4,6.5-8.6c2.2-2,3.7-2.2,4.3-2.2S364.6,202.6,365,203.1z M358.7,207.6
			c-2.6,3-4,6.6-4.6,8.5c-0.4,1.1-0.1,1.8,0.6,1.8c0.5,0,1.2-0.6,2.2-1.5c0.9-0.8,2.4-2.7,4-4.9c0.6-0.9,1.8-3.2,2-3.6
			c0.2-0.6,0.4-1.3,0.2-2c-0.1-0.6-0.5-1.2-1.1-1.2C361.3,204.8,360.2,205.8,358.7,207.6z"/>
		<path class="st0" d="M388.6,203.8c-0.1,0.6-0.6,1.5-1.1,1.9c-0.5,0.5-0.9,0.6-1.2,0.2c-0.4-0.2-0.7-0.5-1.2-0.5
			c-0.7,0-1.8,1.2-3.1,2.6c-3,3.4-5.2,7.7-7.2,12.1c-0.4,0.7-0.7,1.1-1.2,1.1s-0.9-0.2-1.2-0.7c-0.4-0.5-0.4-1.1,0-1.9
			c0.9-2.4,2.2-9.5,2.7-12.1c0.2-1.9,0.5-2.7,0.9-3.2s1.3-1.4,1.8-1.4c0.7,0,1.2,1.1,1.2,1.7s-0.2,0.9-0.5,1.4
			c-0.7,1.4-1.7,5-1.9,6.4c-0.1,0.7,0.1,0.7,0.6,0.1c1.4-2.1,3.8-5.4,5.9-7.5c1.4-1.4,2.6-2.2,3.8-2.2
			C388.1,201.9,388.7,202.8,388.6,203.8z"/>
		<path class="st0" d="M390.4,207.2c1.1-1.5,4-5.3,5.9-5.3c0.7,0,1.1,0.5,1.2,0.9c0,0.1,0.1,0.4,0.6,0.5c1.2,0,2.2,0.9,2.2,2.6
			c0,1.7-0.7,3.4-1.8,4.5c-1.4,1.7-3.4,3.1-6,3.1c-0.6,0-1.1-0.2-1.4-0.5c-0.2-0.1-0.4-0.1-0.6,0.2c-0.2,0.6-0.4,1.4-0.4,2.4
			c0,2.1,1.1,3.2,2.7,3.2c3.9,0,9.9-4.4,13.1-7.9c0.4-0.4,0.6-0.4,0.7,0c0.1,0.4-0.1,1.1-0.6,1.7c-3.3,4.5-9.7,8.6-14.4,8.6
			c-2.1,0-4.5-1.1-4.5-5.1C387.1,213.8,388.4,210.2,390.4,207.2z M397.5,206.8c0-1.3-0.7-2-1.4-2c-1.4,0-3.8,3.7-4.5,5.7
			c-0.1,0.4,0.1,0.6,0.8,0.6C395.1,211.1,397.4,209,397.5,206.8z"/>
	</g>
</g>
</svg>
