<?xml version="1.0" encoding="utf-8"?>
<!-- Generator: Adobe Illustrator 23.0.1, SVG Export Plug-In . SVG Version: 6.00 Build 0)  -->
<svg version="1.1" id="Layer_1" xmlns="http://www.w3.org/2000/svg" xmlns:xlink="http://www.w3.org/1999/xlink" x="0px" y="0px"
	 viewBox="0 0 416.6 240.4" style="enable-background:new 0 0 416.6 240.4;" xml:space="preserve">
<style type="text/css">
	.st0{fill:#E56574;}
	.st1{fill:#FFFFFF;}
	.st2{fill:#06C9C3;}
</style>
<g>
	<polyline class="st0" points="113.5,234.8 1.6,234.8 1.6,2.2 225.8,2.2 225.8,106 	"/>
	<g>
		<circle class="st1" cx="57.6" cy="34.3" r="8.5"/>
		<circle class="st1" cx="80" cy="34.3" r="8.5"/>
		<circle class="st1" cx="102.5" cy="34.3" r="8.5"/>
		<circle class="st1" cx="124.9" cy="34.3" r="8.5"/>
		<circle class="st2" cx="147.3" cy="34.3" r="8.5"/>
		<circle class="st1" cx="57.6" cy="55.2" r="8.5"/>
		<ellipse class="st1" cx="57.6" cy="76.2" rx="8.5" ry="8.5"/>
		<ellipse class="st1" cx="57.6" cy="97.1" rx="8.5" ry="8.5"/>
		<ellipse class="st1" cx="57.6" cy="118.1" rx="8.5" ry="8.5"/>
		<circle class="st1" cx="57.6" cy="139" r="8.5"/>
		<circle class="st1" cx="57.6" cy="159.9" r="8.5"/>
		<ellipse class="st1" cx="57.6" cy="180.9" rx="8.5" ry="8.5"/>
		<ellipse class="st1" cx="57.6" cy="201.8" rx="8.5" ry="8.5"/>
		<circle class="st1" cx="80" cy="55.2" r="8.5"/>
		<ellipse class="st1" cx="80" cy="76.2" rx="8.5" ry="8.5"/>
		<ellipse class="st1" cx="80" cy="97.1" rx="8.5" ry="8.5"/>
		<ellipse class="st1" cx="80" cy="118.1" rx="8.5" ry="8.5"/>
		<circle class="st1" cx="80" cy="139" r="8.5"/>
		<circle class="st1" cx="80" cy="159.9" r="8.5"/>
		<ellipse class="st1" cx="80" cy="180.9" rx="8.5" ry="8.5"/>
		<ellipse class="st1" cx="80" cy="201.8" rx="8.5" ry="8.5"/>
		<circle class="st1" cx="102.5" cy="55.2" r="8.5"/>
		<ellipse class="st1" cx="102.5" cy="76.2" rx="8.5" ry="8.5"/>
		<ellipse class="st1" cx="102.5" cy="118.1" rx="8.5" ry="8.5"/>
		<circle class="st1" cx="102.5" cy="139" r="8.5"/>
		<circle class="st1" cx="102.5" cy="159.9" r="8.5"/>
		<circle class="st2" cx="124.9" cy="55.2" r="8.5"/>
		<ellipse class="st1" cx="124.9" cy="76.2" rx="8.5" ry="8.5"/>
		<ellipse class="st1" cx="124.9" cy="97.1" rx="8.5" ry="8.5"/>
		<ellipse class="st1" cx="124.9" cy="118.1" rx="8.5" ry="8.5"/>
		<circle class="st1" cx="124.9" cy="139" r="8.5"/>
		<circle class="st1" cx="124.9" cy="159.9" r="8.5"/>
		<circle class="st2" cx="147.3" cy="55.2" r="8.5"/>
		<ellipse class="st2" cx="147.3" cy="76.2" rx="8.5" ry="8.5"/>
		<ellipse class="st1" cx="147.3" cy="97.1" rx="8.5" ry="8.5"/>
		<ellipse class="st1" cx="147.3" cy="118.1" rx="8.5" ry="8.5"/>
		<circle class="st1" cx="147.3" cy="139" r="8.5"/>
		<circle class="st1" cx="147.3" cy="159.9" r="8.5"/>
		<circle class="st2" cx="169.7" cy="55.2" r="8.5"/>
		<ellipse class="st1" cx="169.7" cy="76.2" rx="8.5" ry="8.5"/>
		<ellipse class="st1" cx="169.8" cy="97.1" rx="8.5" ry="8.5"/>
		<ellipse class="st1" cx="169.8" cy="118.1" rx="8.5" ry="8.5"/>
		<circle class="st1" cx="169.7" cy="139" r="8.5"/>
	</g>
	<g>
		<path class="st2" d="M129.3,236.7l-0.9-0.8c-0.8-0.7-1-1.9-0.3-2.7l113.8-131.1c0.8-0.9,2.1-0.9,3-0.1l14.2,13.4
			c1.3,1.2,3.4,0.3,3.4-1.3v-0.4c0-1,0.9-1.9,2-1.9h10.6c1.1,0,2,0.9,2,1.9v18.6c0,0.6,0.3,1.1,0.8,1.5l12.9,9.4
			c0.4,0.3,0.8,0.4,1.2,0.4h119.1c1.1,0,2,0.9,2,1.9v1.2c0,1-0.9,1.9-2,1.9H290.4c-0.4,0-0.9-0.1-1.2-0.4l-16.4-12
			c-0.5-0.4-0.8-0.9-0.8-1.5v-16c0-1-0.9-1.9-2-1.9l0,0c-1.1,0-2,0.9-2,1.9v7.5c0,1.7-2.2,2.5-3.5,1.3l-19.1-18
			c-0.8-0.8-2.2-0.7-3,0.1L132.2,236.4C131.5,237.2,130.2,237.3,129.3,236.7z"/>
	</g>
	<g>
		<path class="st0" d="M287.5,200.6c0.1,0.5-0.1,1.2-0.6,2.2c-0.7,1.4-1.9,3.9-2.7,6.4c-0.1,0.3-0.1,0.4,0.3,0.4c1.1,0,3,0,3.7-0.1
			c0.7-0.1,0.8,0.2,0.3,0.6c-1.3,0.7-2.9,1-4.6,1.2c-0.4,0-0.5,0.1-0.6,0.4c-0.2,0.5-0.4,1.2-0.9,3.1c-0.1,0.5,0,0.6,0.3,0.7
			c0.4,0,0.6,0.4,0.4,0.9c-0.5,1.8-2.2,4.1-2.8,4.6c-0.3,0.3-0.6,0.4-0.8,0.4c-0.6,0-0.8-1.2-0.6-2.2c0.2-0.9,1.8-6.6,2.1-7.3
			c0.1-0.3,0-0.5-0.2-0.5c-0.6,0-8.3,0.2-9.3,0.2c-0.4,0-0.5,0.1-0.8,0.5c-0.6,1.2-1.5,3.3-1.8,4.4c-0.1,0.5,0,0.6,0.3,0.7
			c0.5,0.1,0.8,0.7,0.5,1.4c-0.2,0.7-0.9,1.4-1.2,1.9c-0.4,0.5-1.1,1-1.8,1c-0.9,0-0.9-1.2-0.5-3c0.4-1.8,1.7-5.6,1.9-6.2
			c0.2-0.4,0.1-0.6-0.1-0.6c-0.5-0.2-0.8-0.4-0.8-0.8c0-0.5,1.2-1,1.7-1.2c0.4-0.1,0.5-0.2,0.6-0.6c0.3-0.7,2.9-7.6,3.2-8.5
			c0.3-0.7,0.6-1.2,1.2-1.2c0.6,0,2,0.9,1.1,2.8c-0.3,0.5-2.6,6-2.9,6.7c-0.2,0.5-0.1,0.5,0.3,0.5c0.7,0,8.3,0,8.9,0
			c0.5,0,0.5,0,0.6-0.4c0.3-0.9,2.5-7.3,3.4-8.7c0.5-0.8,0.7-0.9,1.3-0.9C287,199.5,287.4,200.1,287.5,200.6z"/>
		<path class="st0" d="M288.9,213.1c0.7-1.4,2.4-3.9,2.9-4.5c0.3-0.5,0.5-0.8,0.5-1.4c0-0.6,0.3-1,0.6-1.3c0.3-0.3,0.6-0.4,1.1-0.4
			c0.5,0,0.7-0.2,1-0.5c0.3-0.5,0.8-0.7,1.3-0.7c0.9,0,1.2,0.5,1.2,1.1c0,0.2,0,0.5,0.2,0.7c1.1,0.8,2.2,2.2,2.2,4.7
			c0,1.3-0.9,4.1-2.4,5.8c-2.4,3.1-5.5,4.5-7.6,4.5c-1.1,0-2.4-1.4-2.4-2.9C287.6,216.6,288.4,214.5,288.9,213.1z M291.4,219
			c0.8,0,1.9-0.4,2.8-1.4c1.5-1.4,3.5-4.8,3.5-7c0-1.3-0.2-3-1.8-3c-0.6,0-1.1,0.5-1.9,1.5c-1.4,1.7-3.8,5.6-3.8,8.3
			C290.3,218.4,290.8,219,291.4,219z"/>
		<path class="st0" d="M316.6,207.4c-0.5,1.1-2.5,7-2.8,7.8c-0.1,0.5-0.1,0.8,0,0.9c0.2,0.1,0.5-0.1,0.9-0.5c3-3.3,8.1-8.9,8.7-9.5
			s1-0.8,1.3-0.8c0.6,0,1.3,0.9,1.3,1.7c0,0.5-0.3,0.7-0.7,1c-0.3,0.3-0.6,0.5-0.9,1.1c-0.5,1-1.4,3.4-1.9,6.1
			c-0.4,2.6-0.2,3.8,1.2,3.8c1.8,0,4.4-2.1,8.4-7.3c0.4-0.4,0.6-0.4,0.8-0.1c0.1,0.3,0,0.8-0.5,1.5c-3.6,5.8-7.4,8.1-9.6,8.1
			c-1.7,0-3.1-1.8-2.7-5.3c0.2-1.8,0.6-3.3,0.9-4.5c0.1-0.5,0-0.6-0.5,0c-1.6,1.8-6,6.9-7.4,8.2c-0.9,0.9-1.4,1.2-1.8,1.2
			c-0.8,0-0.9-1.9-0.3-4.1c0.3-1.1,1.4-4.6,1.7-5.7c0.2-0.7,0.2-0.9,0-1.1c-0.1-0.1-0.5,0.1-0.8,0.5c-1,0.7-6.7,7.9-7.9,9.3
			c-0.6,0.7-1.1,1.2-1.5,1.2c-0.6,0-1.3-1-1-3.1c0.2-1.2,1.2-4.6,2.3-8.1c0.1-0.4,0.1-0.5,0.2-0.8c0-0.3,0.1-0.9,0.3-1.7
			c0.3-1,0.6-2.7,1.5-2.7c0.3,0,0.5,0.1,0.8,0.5c0.6,0.7,0.9,1.4,0.4,2.5c-0.9,1.7-2.1,6.1-2.5,7.7c-0.4,1.2,0,1.5,0.5,0.9
			c2.2-2.7,4.6-5.6,6.9-7.9c1.2-1.3,1.9-1.9,2.5-2.4s1.1-0.9,1.4-0.9C316.4,204.8,317.2,205.8,316.6,207.4z"/>
		<path class="st0" d="M333,209.2c0.9-1.3,3.4-4.5,5-4.5c0.6,0,0.9,0.4,1,0.8c0,0.1,0.1,0.3,0.5,0.4c1,0,1.9,0.8,1.9,2.2
			c0,1.4-0.6,2.9-1.5,3.8c-1.2,1.4-2.9,2.6-5.1,2.6c-0.5,0-0.9-0.2-1.2-0.4c-0.2-0.1-0.3-0.1-0.5,0.2c-0.2,0.5-0.3,1.2-0.3,2
			c0,1.8,0.9,2.7,2.3,2.7c3.3,0,8.4-3.7,11.1-6.7c0.3-0.3,0.5-0.3,0.6,0c0.1,0.3-0.1,0.9-0.5,1.4c-2.8,3.8-8.2,7.3-12.2,7.3
			c-1.8,0-3.8-0.9-3.8-4.3C330.2,214.8,331.3,211.7,333,209.2z M339,208.9c0-1.1-0.6-1.7-1.2-1.7c-1.2,0-3.2,3.1-3.8,4.8
			c-0.1,0.3,0.1,0.5,0.7,0.5C336.9,212.5,339,210.7,339,208.9z"/>
		<path class="st0" d="M355.8,206.5c0,1-0.8,1.7-1.4,2c-0.5,0.3-0.9,0.3-1.1,0.1c-0.2-0.2-0.3-0.5-0.2-0.9c0-0.5-0.2-0.8-0.7-0.8
			c-0.9,0-2.7,1.4-3.7,3c-1.8,2.5-2.1,4.8-2.1,6.2c0,1.8,0.9,2.8,2.2,2.8c3.3,0,8.3-3.7,10.9-6.5c0.4-0.4,0.7-0.4,0.8-0.1
			c0.1,0.3-0.1,0.8-0.5,1.4c-2.8,3.7-8.5,7.3-12.3,7.3c-1.7,0-3.8-0.9-3.8-4.3c0-2,0.9-5.3,3.4-8.2c1.9-2.1,4.6-3.8,6.5-3.8
			C355.2,204.8,355.8,205.7,355.8,206.5z"/>
		<path class="st0" d="M369.1,205.7c0,0.2,0.2,0.2,0.4,0.1c0.3-0.2,0.6-0.2,0.9,0c0.7,0.4,0.6,0.9,0.4,1.3c-1.4,3-2.2,5.6-2.2,8.2
			c0,2,0.3,3.5,1.4,3.5c1.9,0,5.4-4.1,7.6-7c0.3-0.5,0.7-0.4,0.7,0c0,0.4-0.1,0.9-0.4,1.6c-1.7,3.3-6.4,7.9-8.8,7.9
			c-1.1,0-2.4-1.4-2.6-3.2c-0.1-0.9-0.1-2.2-0.1-2.7c0-0.3-0.1-0.4-0.4-0.1c-0.6,0.9-3.2,3.7-4.4,4.7c-1.1,0.9-1.9,1.4-2.6,1.4
			c-0.4,0-1.9-0.5-1.9-2.2c0-0.8,0.3-2.2,1.7-4.9c1.2-2.3,3.3-5.4,5.5-7.3c1.9-1.7,3.1-1.9,3.6-1.9S368.8,205.3,369.1,205.7z
			 M363.8,209.5c-2.2,2.5-3.4,5.6-3.9,7.2c-0.3,0.9-0.1,1.5,0.5,1.5c0.4,0,1-0.5,1.9-1.3c0.8-0.7,2-2.3,3.4-4.1
			c0.5-0.8,1.5-2.7,1.7-3c0.2-0.5,0.3-1.1,0.2-1.7c-0.1-0.5-0.4-1-0.9-1C366,207.2,365,208,363.8,209.5z"/>
		<path class="st0" d="M389,206.3c-0.1,0.5-0.5,1.3-0.9,1.6c-0.4,0.4-0.8,0.5-1,0.2c-0.3-0.2-0.6-0.4-1-0.4c-0.6,0-1.5,1-2.6,2.2
			c-2.5,2.9-4.4,6.5-6.1,10.2c-0.3,0.6-0.6,0.9-1,0.9c-0.4,0-0.8-0.2-1-0.6c-0.3-0.4-0.3-0.9,0-1.6c0.8-2,1.9-8,2.3-10.2
			c0.2-1.6,0.4-2.3,0.8-2.7c0.4-0.4,1.1-1.2,1.5-1.2c0.6,0,1,0.9,1,1.4c0,0.5-0.2,0.8-0.4,1.2c-0.6,1.2-1.4,4.2-1.6,5.4
			c-0.1,0.6,0.1,0.6,0.5,0.1c1.2-1.8,3.2-4.6,5-6.3c1.2-1.2,2.2-1.9,3.2-1.9C388.6,204.7,389.1,205.5,389,206.3z"/>
		<path class="st0" d="M390.6,209.2c0.9-1.3,3.4-4.5,5-4.5c0.6,0,0.9,0.4,1,0.8c0,0.1,0.1,0.3,0.5,0.4c1,0,1.9,0.8,1.9,2.2
			c0,1.4-0.6,2.9-1.5,3.8c-1.2,1.4-2.9,2.6-5.1,2.6c-0.5,0-0.9-0.2-1.2-0.4c-0.2-0.1-0.3-0.1-0.5,0.2c-0.2,0.5-0.3,1.2-0.3,2
			c0,1.8,0.9,2.7,2.3,2.7c3.3,0,8.4-3.7,11.1-6.7c0.3-0.3,0.5-0.3,0.6,0c0.1,0.3-0.1,0.9-0.5,1.4c-2.8,3.8-8.2,7.3-12.2,7.3
			c-1.8,0-3.8-0.9-3.8-4.3C387.8,214.8,388.9,211.7,390.6,209.2z M396.6,208.9c0-1.1-0.6-1.7-1.2-1.7c-1.2,0-3.2,3.1-3.8,4.8
			c-0.1,0.3,0.1,0.5,0.7,0.5C394.5,212.5,396.5,210.7,396.6,208.9z"/>
	</g>
	<g>
		<path class="st2" d="M222.6,198.7c0,2.3,0.9,3.4,2.7,3.4c3.3,0,7.6-5.6,13.1-16.7c0.2-0.4,0.4-0.9,0.6-1.3
			c0.2-0.4,0.5-0.7,0.8-0.9c0.4-0.1,0.6-0.1,0.8,0.3c0.1,0.3,0.1,0.8-0.2,1.5c-5.6,13.2-11.2,19.8-16.9,19.8c-1.9,0-3.4-0.9-4.5-2.6
			c-1.1-1.7-1.7-3.4-1.7-5.1c0-1.7,0.2-3.2,0.5-4.6c-4,6.8-7.5,10.7-10.5,11.6c-0.8,0.4-1.7,0.5-2.5,0.5c-0.8,0-1.6-0.1-2.4-0.3
			c-3.4-0.9-5.1-3.7-5.1-8.3c0-3.1,0.8-6.6,2.4-10.4c1.6-3.8,3.8-7.4,6.6-10.9c2.9-3.5,6.3-5.8,10.4-7c1.5-0.5,3.2-0.7,5.2-0.7
			c2,0,4.2,0.6,6.6,1.9c4.7-9.1,8.8-17.5,12.1-25.3c1-2.3,1.9-3.9,2.9-4.5c0.9-0.7,1.8-1,2.6-1c0.8,0,1.3,0,1.5,0
			c0.2,0,0.8,0.1,2,0.3c1.2,0.2,2,0.2,2.7,0.2c-1.6,1.5-5.9,8.7-12.8,21.8c-8.8,16.6-14.1,27.7-15.9,33.3
			C223,195.6,222.6,197.3,222.6,198.7z M227.8,170.6c-0.9-0.9-2.2-1.4-3.8-1.4c-1.6,0-3.9,1.2-6.9,3.7c-4.7,4-8.5,8.9-11.6,14.7
			c-2,3.8-3,7-3,9.5c0,1.1,0.2,2.2,0.7,3.1c0.5,0.9,1.2,1.4,2.1,1.4c2.4,0,5.3-2.5,8.8-7.5C217.5,189.2,222.1,181.4,227.8,170.6z"/>
		<path class="st2" d="M270.3,175.9c0,3.1-0.8,6.6-2.4,10.3c-1.6,3.8-3.8,7.4-6.6,10.9c-2.8,3.5-6.3,5.9-10.3,7.1
			c-1.5,0.4-3.3,0.6-5.3,0.6c-2,0-4.2-0.6-6.5-1.9l-9.9,25.3c-1,2.3-2,3.8-2.9,4.5c-0.9,0.7-1.8,1.1-2.6,1.1s-1.3,0-1.5,0
			c-0.2,0-0.8-0.1-1.9-0.3c-1.1-0.2-1.9-0.3-2.5-0.2c1.5-1.5,5.4-8.6,11.7-21.3s9.8-21.2,10.6-25.6c-0.8,1.1-1.5,1.7-2.2,1.8
			c-0.4,0-0.4-0.4,0-1.2c0.4-0.8,1.1-2.4,2.1-4.7c1.3-3.1,1.9-5.9,1.9-8.5c0-2.6-0.5-4.1-1.5-4.5c4.2-0.7,6.6-1,7.3-1
			c0.7,0,1.1,0.3,1.3,0.9c0.2,0.6,0.3,1.2,0.3,1.9c0,4.3-1,9.2-2.9,14.5l2.1-3.4c2.5-4.1,4.3-6.8,5.5-8c1.2-1.2,2.4-2.5,3.7-3.7
			c2-2,4-3,5.9-3c0.6,0,1.1,0.1,1.6,0.2C268.6,168.5,270.3,171.2,270.3,175.9z M265.3,174.8c0-1.1-0.2-2.2-0.7-3.1
			c-0.5-1-1.2-1.4-2.1-1.4c-2.4,0-5.3,2.3-8.5,6.9c-3.2,4.6-7.9,12.7-14,24.2c0.9,0.9,2.2,1.4,3.8,1.4c1.6,0,3.9-1.2,6.8-3.7
			c4.7-4,8.6-8.9,11.7-14.8C264.3,180.3,265.3,177.2,265.3,174.8z"/>
	</g>
</g>
</svg>
