<?xml version="1.0" encoding="utf-8"?>
<!-- Generator: Adobe Illustrator 23.0.1, SVG Export Plug-In . SVG Version: 6.00 Build 0)  -->
<svg version="1.1" id="Layer_1" xmlns="http://www.w3.org/2000/svg" xmlns:xlink="http://www.w3.org/1999/xlink" x="0px" y="0px"
	 viewBox="0 0 413 238.4" style="enable-background:new 0 0 413 238.4;" xml:space="preserve">
<style type="text/css">
	.st0{fill:#E56574;}
	.st1{fill:#FFFFFF;}
	.st2{fill:#06C9C3;}
</style>
<g>
	<g>
		<path class="st0" d="M205.4,126.1v-109c0-8.2-6.7-14.9-14.9-14.9H16.9C8.7,2.2,2,8.9,2,17.1v203.5c0,8.2,6.7,14.9,14.9,14.9h92.4
			c3.2,0,6.3-1.4,8.5-3.8l84.8-98.2C204.4,131.5,205.4,128.8,205.4,126.1z"/>
		<g>
			<circle class="st1" cx="47.6" cy="35.1" r="8.5"/>
			<circle class="st1" cx="70" cy="35.1" r="8.5"/>
			<circle class="st1" cx="92.5" cy="35.1" r="8.5"/>
			<circle class="st1" cx="114.9" cy="35.1" r="8.5"/>
			<circle class="st2" cx="137.3" cy="35.1" r="8.5"/>
			<circle class="st1" cx="47.6" cy="56" r="8.5"/>
			<ellipse class="st1" cx="47.6" cy="77" rx="8.5" ry="8.5"/>
			<ellipse class="st1" cx="47.6" cy="97.9" rx="8.5" ry="8.5"/>
			<ellipse class="st1" cx="47.6" cy="118.9" rx="8.5" ry="8.5"/>
			<circle class="st1" cx="47.6" cy="139.8" r="8.5"/>
			<circle class="st1" cx="47.6" cy="160.7" r="8.5"/>
			<ellipse class="st1" cx="47.6" cy="181.7" rx="8.5" ry="8.5"/>
			<ellipse class="st1" cx="47.6" cy="202.6" rx="8.5" ry="8.5"/>
			<circle class="st1" cx="70" cy="56" r="8.5"/>
			<ellipse class="st1" cx="70" cy="77" rx="8.5" ry="8.5"/>
			<ellipse class="st1" cx="70" cy="97.9" rx="8.5" ry="8.5"/>
			<ellipse class="st1" cx="70" cy="118.9" rx="8.5" ry="8.5"/>
			<circle class="st1" cx="70" cy="139.8" r="8.5"/>
			<circle class="st1" cx="70" cy="160.7" r="8.5"/>
			<ellipse class="st1" cx="70" cy="181.7" rx="8.5" ry="8.5"/>
			<ellipse class="st1" cx="70" cy="202.6" rx="8.5" ry="8.5"/>
			<circle class="st1" cx="92.5" cy="56" r="8.5"/>
			<ellipse class="st1" cx="92.5" cy="77" rx="8.5" ry="8.5"/>
			<ellipse class="st1" cx="92.5" cy="118.9" rx="8.5" ry="8.5"/>
			<circle class="st1" cx="92.5" cy="139.8" r="8.5"/>
			<circle class="st1" cx="92.5" cy="160.7" r="8.5"/>
			<circle class="st2" cx="114.9" cy="56" r="8.5"/>
			<ellipse class="st1" cx="114.9" cy="77" rx="8.5" ry="8.5"/>
			<ellipse class="st1" cx="114.9" cy="97.9" rx="8.5" ry="8.5"/>
			<ellipse class="st1" cx="114.9" cy="118.9" rx="8.5" ry="8.5"/>
			<circle class="st1" cx="114.9" cy="139.8" r="8.5"/>
			<circle class="st1" cx="114.9" cy="160.7" r="8.5"/>
			<circle class="st2" cx="137.3" cy="56" r="8.5"/>
			<ellipse class="st2" cx="137.3" cy="77" rx="8.5" ry="8.5"/>
			<ellipse class="st1" cx="137.3" cy="97.9" rx="8.5" ry="8.5"/>
			<ellipse class="st1" cx="137.3" cy="118.9" rx="8.5" ry="8.5"/>
			<circle class="st1" cx="137.3" cy="139.8" r="8.5"/>
			<circle class="st1" cx="137.3" cy="160.7" r="8.5"/>
			<circle class="st2" cx="159.7" cy="56" r="8.5"/>
			<ellipse class="st1" cx="159.7" cy="77" rx="8.5" ry="8.5"/>
			<ellipse class="st1" cx="159.8" cy="97.9" rx="8.5" ry="8.5"/>
			<ellipse class="st1" cx="159.8" cy="118.9" rx="8.5" ry="8.5"/>
			<circle class="st1" cx="159.7" cy="139.8" r="8.5"/>
		</g>
		<g>
			<path class="st2" d="M125.7,234.7l-0.9-0.8c-0.8-0.7-1-1.9-0.3-2.7l113.8-131.1c0.8-0.9,2.1-0.9,3-0.1l14.2,13.4
				c1.3,1.2,3.4,0.3,3.4-1.3v-0.4c0-1,0.9-1.9,2-1.9h10.6c1.1,0,2,0.9,2,1.9v18.6c0,0.6,0.3,1.1,0.8,1.5l12.9,9.4
				c0.4,0.3,0.8,0.4,1.2,0.4h119.1c1.1,0,2,0.9,2,1.9v1.2c0,1-0.9,1.9-2,1.9H286.8c-0.4,0-0.9-0.1-1.2-0.4l-16.4-12
				c-0.5-0.4-0.8-0.9-0.8-1.5v-16c0-1-0.9-1.9-2-1.9l0,0c-1.1,0-2,0.9-2,1.9v7.5c0,1.7-2.2,2.5-3.5,1.3l-19.1-18
				c-0.8-0.8-2.2-0.7-3,0.1L128.6,234.4C127.9,235.2,126.6,235.3,125.7,234.7z"/>
		</g>
	</g>
	<g>
		<path class="st2" d="M244.5,160.1c3.3,3,4.9,7.2,4.9,13c0,3.7-0.8,6.9-2.4,9.6c-1.6,2.7-3.9,4.9-6.9,6.3c-3,1.5-6.5,2.3-10.7,2.3
			l-3.1-0.1c-1.9-0.1-3.3-0.1-4.2-0.1c-3.4,0-6.1,0.1-7.8,0.1v-1c1-0.1,1.9-0.2,2.4-0.3c0.6-0.2,0.8-0.6,1-1.1
			c0.1-0.6,0.3-1.5,0.3-2.7v-25c0-1.3-0.1-2.2-0.3-2.7c-0.1-0.6-0.6-1-1-1.1c-0.6-0.2-1.3-0.3-2.4-0.3v-1c1.4,0.1,3.4,0.1,6.1,0.1
			h1.5l1.9-0.1c2.7-0.1,4.7-0.1,5.8-0.1C236.4,155.5,241.3,157.1,244.5,160.1z M227.5,156.9c-0.6,0.2-0.9,0.7-1,1.3
			s-0.3,1.5-0.3,2.7V186c0,1.3,0.1,2.2,0.3,2.7s0.6,1,1,1.3c0.6,0.2,1.3,0.3,2.4,0.3c4,0,7-1.5,8.7-4.2c1.7-2.9,2.6-7.1,2.6-12.8
			s-0.9-9.9-2.6-12.7c-1.7-2.6-4.7-4-8.7-4C228.8,156.4,228,156.7,227.5,156.9z"/>
		<path class="st2" d="M264.6,176.8v8.8c0,1.4,0.1,2.3,0.5,3c0.3,0.6,0.8,1,1.5,1.3c0.7,0.2,1.8,0.3,3.4,0.3v1
			c-4.1-0.1-7.2-0.1-9.1-0.1c-1.7,0-3.8,0-6.3,0.1l-1.6,0.1v-1c1-0.1,1.9-0.2,2.4-0.3c0.6-0.2,0.8-0.6,1-1.1
			c0.1-0.6,0.3-1.5,0.3-2.7v-25c0-1.3-0.1-2.2-0.3-2.7c-0.1-0.6-0.6-1-1-1.1c-0.6-0.2-1.3-0.3-2.4-0.3v-1c1.7,0.1,4.2,0.1,7.7,0.1
			l5.6-0.1c0.7,0,1.5-0.1,2.3-0.1c4.5,0,8,0.9,10.4,2.6c2.4,1.7,3.5,4.2,3.5,7.2c0,1.8-0.5,3.5-1.4,5.3c-0.9,1.7-2.5,3.1-4.7,4.2
			s-5.1,1.7-8.9,1.7L264.6,176.8L264.6,176.8z M265.8,156.9c-0.3,0.2-0.7,0.7-0.9,1.3c-0.1,0.6-0.2,1.5-0.2,2.7v14.9h2.2
			c2.7,0,4.6-0.8,5.6-2.6c1-1.7,1.5-4.1,1.5-7.1c0-3.3-0.5-5.6-1.5-7.2c-1-1.5-2.5-2.3-4.8-2.3C266.9,156.7,266.2,156.7,265.8,156.9
			z"/>
	</g>
	<g>
		<path class="st0" d="M205.5,194.5c0.1,0.8-0.1,1.9-0.9,3.5c-1.1,2.3-3,6.2-4.3,10.3c-0.1,0.5-0.1,0.7,0.5,0.7c1.8,0,4.9,0,6-0.1
			s1.2,0.3,0.5,0.9c-2,1.1-4.6,1.6-7.3,1.9c-0.7,0-0.8,0.1-0.9,0.7c-0.3,0.8-0.7,1.9-1.5,5c-0.1,0.8,0,0.9,0.5,1.1
			c0.7,0,0.9,0.7,0.7,1.5c-0.8,2.8-3.5,6.6-4.5,7.3c-0.5,0.5-0.9,0.7-1.2,0.7c-0.9,0-1.2-1.9-0.9-3.5c0.3-1.5,2.8-10.6,3.4-11.6
			c0.1-0.5,0-0.8-0.3-0.8c-0.9,0-13.3,0.3-14.9,0.3c-0.7,0-0.8,0.1-1.2,0.8c-0.9,1.9-2.4,5.3-2.8,7c-0.1,0.8,0,0.9,0.5,1.1
			c0.8,0.1,1.2,1.1,0.8,2.3c-0.3,1.1-1.5,2.3-1.9,3c-0.7,0.8-1.8,1.6-2.8,1.6c-1.5,0-1.5-1.9-0.8-4.9c0.7-2.8,2.7-8.9,3-9.9
			c0.3-0.7,0.1-0.9-0.1-0.9c-0.8-0.3-1.2-0.7-1.2-1.2c0-0.8,1.9-1.6,2.7-1.9c0.7-0.1,0.8-0.3,0.9-0.9c0.5-1.1,4.6-12.2,5.1-13.7
			c0.5-1.1,0.9-1.9,1.9-1.9c0.9,0,3.3,1.5,1.8,4.5c-0.5,0.8-4.2,9.6-4.6,10.7c-0.3,0.8-0.1,0.8,0.5,0.8c1.1,0,13.3,0,14.2,0
			c0.8,0,0.8,0,0.9-0.7c0.5-1.5,4.1-11.6,5.4-13.9c0.8-1.2,1.1-1.5,2-1.5C204.7,192.7,205.4,193.6,205.5,194.5z"/>
		<path class="st0" d="M207.8,214.5c1.1-2.3,3.8-6.2,4.6-7.2c0.5-0.8,0.8-1.2,0.8-2.3c0-0.9,0.5-1.6,0.9-2c0.5-0.5,0.9-0.7,1.8-0.7
			c0.8,0,1.1-0.3,1.6-0.8c0.5-0.8,1.2-1.1,2-1.1c1.5,0,1.9,0.8,1.9,1.8c0,0.3,0,0.8,0.3,1.1c1.8,1.2,3.5,3.5,3.5,7.6
			c0,2-1.5,6.6-3.8,9.3c-3.8,5-8.8,7.2-12.2,7.2c-1.8,0-3.8-2.3-3.8-4.6C205.7,220.2,207,216.8,207.8,214.5z M211.7,224
			c1.2,0,3-0.7,4.5-2.3c2.4-2.3,5.6-7.7,5.6-11.2c0-2-0.3-4.9-2.8-4.9c-0.9,0-1.8,0.8-3,2.4c-2.3,2.7-6.1,8.9-6.1,13.3
			C210,223,210.8,224,211.7,224z"/>
		<path class="st0" d="M252.2,205.4c-0.8,1.8-4.1,11.2-4.5,12.5c-0.1,0.8-0.1,1.2,0,1.5c0.3,0.1,0.8-0.1,1.5-0.8
			c4.9-5.3,13-14.2,13.9-15.2c0.9-0.9,1.6-1.2,2-1.2c0.9,0,2,1.5,2,2.7c0,0.8-0.5,1.1-1.1,1.6c-0.5,0.5-0.9,0.8-1.5,1.8
			c-0.8,1.6-2.3,5.4-3,9.8c-0.7,4.2-0.3,6.1,1.9,6.1c2.8,0,7-3.4,13.4-11.6c0.7-0.7,0.9-0.7,1.2-0.1c0.1,0.5,0,1.2-0.8,2.4
			c-5.8,9.3-11.9,13-15.4,13c-2.7,0-5-2.8-4.3-8.5c0.3-2.8,0.9-5.3,1.5-7.2c0.1-0.8,0-0.9-0.8,0c-2.6,2.8-9.6,11.1-11.9,13.1
			c-1.5,1.5-2.3,1.9-2.8,1.9c-1.2,0-1.5-3-0.5-6.6c0.5-1.8,2.3-7.3,2.7-9.1c0.3-1.1,0.3-1.5,0-1.8c-0.1-0.1-0.8,0.1-1.2,0.8
			c-1.6,1.1-10.7,12.6-12.6,14.9c-0.9,1.1-1.8,1.9-2.4,1.9c-0.9,0-2-1.6-1.6-5c0.3-1.9,1.9-7.3,3.7-13c0.1-0.7,0.1-0.8,0.3-1.2
			c0-0.5,0.1-1.5,0.5-2.7c0.5-1.6,0.9-4.3,2.4-4.3c0.5,0,0.8,0.1,1.2,0.8c0.9,1.1,1.5,2.3,0.7,4.1c-1.5,2.7-3.4,9.8-4.1,12.3
			c-0.7,1.9,0,2.4,0.8,1.5c3.5-4.3,7.3-8.9,11.1-12.6c1.9-2,3-3,4.1-3.8c0.9-0.8,1.8-1.5,2.3-1.5
			C251.8,201.2,253.2,202.9,252.2,205.4z"/>
		<path class="st0" d="M278.5,208.3c1.5-2,5.4-7.2,8-7.2c0.9,0,1.5,0.7,1.6,1.2c0,0.1,0.1,0.5,0.8,0.7c1.6,0,3,1.2,3,3.5
			s-0.9,4.6-2.4,6.1c-1.9,2.3-4.6,4.2-8.1,4.2c-0.8,0-1.5-0.3-1.9-0.7c-0.3-0.1-0.5-0.1-0.8,0.3c-0.3,0.8-0.5,1.9-0.5,3.3
			c0,2.8,1.5,4.3,3.7,4.3c5.3,0,13.4-6,17.7-10.7c0.5-0.5,0.8-0.5,0.9,0s-0.1,1.5-0.8,2.3c-4.5,6.1-13.1,11.6-19.5,11.6
			c-2.8,0-6.1-1.5-6.1-6.9C274,217.2,275.8,212.3,278.5,208.3z M288.1,207.7c0-1.8-0.9-2.7-1.9-2.7c-1.9,0-5.1,5-6.1,7.7
			c-0.1,0.5,0.1,0.8,1.1,0.8C284.7,213.6,288.1,210.7,288.1,207.7z"/>
		<path class="st0" d="M315.1,203.9c0,1.6-1.2,2.7-2.3,3.3c-0.8,0.5-1.5,0.5-1.8,0.1c-0.3-0.3-0.5-0.8-0.3-1.5
			c0-0.8-0.3-1.2-1.1-1.2c-1.5,0-4.3,2.3-6,4.9c-2.8,4.1-3.4,7.7-3.4,9.9c0,2.8,1.5,4.5,3.5,4.5c5.3,0,13.3-6,17.5-10.4
			c0.7-0.7,1.1-0.7,1.2-0.1c0.1,0.5-0.1,1.2-0.8,2.3c-4.5,6-13.7,11.6-19.8,11.6c-2.7,0-6.1-1.5-6.1-6.9c0-3.3,1.5-8.5,5.4-13.1
			c3-3.4,7.3-6.1,10.4-6.1C314.1,201.2,315.1,202.7,315.1,203.9z"/>
		<path class="st0" d="M336.3,202.7c0,0.3,0.3,0.3,0.7,0.1c0.5-0.3,0.9-0.3,1.5,0c1.1,0.7,0.9,1.5,0.7,2c-2.3,4.9-3.5,8.9-3.5,13.1
			c0,3.3,0.5,5.6,2.3,5.6c3,0,8.7-6.6,12.2-11.2c0.5-0.8,1.1-0.7,1.1,0s-0.1,1.5-0.7,2.6c-2.7,5.3-10.3,12.6-14.1,12.6
			c-1.8,0-3.8-2.3-4.2-5.1c-0.1-1.5-0.1-3.5-0.1-4.3c0-0.5-0.1-0.7-0.7-0.1c-0.9,1.5-5.1,6-7,7.6c-1.8,1.5-3,2.3-4.2,2.3
			c-0.7,0-3-0.8-3-3.5c0-1.2,0.5-3.5,2.7-7.9c1.9-3.7,5.3-8.7,8.8-11.6c3-2.7,5-3,5.8-3S335.8,202,336.3,202.7z M327.8,208.8
			c-3.5,4.1-5.4,8.9-6.2,11.5c-0.5,1.5-0.1,2.4,0.8,2.4c0.7,0,1.6-0.8,3-2c1.2-1.1,3.3-3.7,5.4-6.6c0.8-1.2,2.4-4.3,2.7-4.9
			c0.3-0.8,0.5-1.8,0.3-2.7c-0.1-0.8-0.7-1.6-1.5-1.6C331.3,205,329.8,206.4,327.8,208.8z"/>
		<path class="st0" d="M368.3,203.7c-0.1,0.8-0.8,2-1.5,2.6c-0.7,0.7-1.2,0.8-1.6,0.3c-0.5-0.3-0.9-0.7-1.6-0.7
			c-0.9,0-2.4,1.6-4.2,3.5c-4.1,4.6-7,10.4-9.8,16.4c-0.5,0.9-0.9,1.5-1.6,1.5s-1.2-0.3-1.6-0.9c-0.5-0.7-0.5-1.5,0-2.6
			c1.2-3.3,3-12.9,3.7-16.4c0.3-2.6,0.7-3.7,1.2-4.3c0.5-0.7,1.8-1.9,2.4-1.9c0.9,0,1.6,1.5,1.6,2.3s-0.3,1.2-0.7,1.9
			c-0.9,1.9-2.3,6.8-2.6,8.7c-0.1,0.9,0.1,0.9,0.8,0.1c1.9-2.8,5.1-7.3,8-10.2c1.9-1.9,3.5-3,5.1-3
			C367.6,201.1,368.4,202.3,368.3,203.7z"/>
		<path class="st0" d="M370.7,208.3c1.5-2,5.4-7.2,8-7.2c0.9,0,1.5,0.7,1.6,1.2c0,0.1,0.1,0.5,0.8,0.7c1.6,0,3,1.2,3,3.5
			s-0.9,4.6-2.4,6.1c-1.9,2.3-4.6,4.2-8.1,4.2c-0.8,0-1.5-0.3-1.9-0.7c-0.3-0.1-0.5-0.1-0.8,0.3c-0.3,0.8-0.5,1.9-0.5,3.3
			c0,2.8,1.5,4.3,3.7,4.3c5.3,0,13.4-6,17.7-10.7c0.5-0.5,0.8-0.5,0.9,0s-0.1,1.5-0.8,2.3c-4.5,6.1-13.1,11.6-19.5,11.6
			c-2.8,0-6.1-1.5-6.1-6.9C366.3,217.2,368,212.3,370.7,208.3z M380.4,207.7c0-1.8-0.9-2.7-1.9-2.7c-1.9,0-5.1,5-6.1,7.7
			c-0.1,0.5,0.1,0.8,1.1,0.8C377.1,213.6,380.2,210.7,380.4,207.7z"/>
	</g>
</g>
</svg>
