<?xml version="1.0" encoding="utf-8"?>
<!-- Generator: Adobe Illustrator 23.0.1, SVG Export Plug-In . SVG Version: 6.00 Build 0)  -->
<svg version="1.1" id="Layer_1" xmlns="http://www.w3.org/2000/svg" xmlns:xlink="http://www.w3.org/1999/xlink" x="0px" y="0px"
	 viewBox="0 0 431.9 435.6" style="enable-background:new 0 0 431.9 435.6;" xml:space="preserve">
<style type="text/css">
	.st0{fill:#F2C300;}
	.st1{fill:#CC6C1D;}
	.st2{fill:#EBEEEF;}
	.st3{fill:#747474;}
</style>
<g>
	<g>
		
			<image style="overflow:visible;opacity:0.5;" width="428" height="426" xlink:href="1182E726D4138974.png"  transform="matrix(1 0 0 1 3.9633 7.6649)">
		</image>
		<g>
			<g>
				<path class="st0" d="M244,12.7C357.3,28.1,436.7,132.6,421.2,246S301.2,438.6,187.9,423.2C74.5,407.7-4.8,303.2,10.7,189.9"/>
				<path class="st1" d="M243.7,12.4c0,0.6,0.1,1.3,0.1,1.9c1.3,16.7,2,11.4-1.2,31.2c-15.9,90.9-62.6,128.4-126.8,152.2
					c-30.7,11.4-81.1,1.5-103.7-7.2c-0.5-0.2-0.9-0.4-1.4-0.6c23.8-18.3,47.6-36.5,71.5-54.7c52.4-40,104.9-79.9,157.3-119.9
					C240.9,14.3,242.3,13.4,243.7,12.4z"/>
				<path class="st2" d="M243.7,12.4c0,0.6,0.1,1.3,0.1,1.9c-2,10.9-4.1,21.8-7.7,32.3c-21.9,65.1-64.9,109.7-129.1,133.5
					c-30.7,11.4-62.5,13.9-94.9,10.4c-0.5-0.2-0.9-0.4-1.4-0.6c23.8-18.3,47.6-36.5,71.5-54.7c52.4-40,104.9-79.9,157.3-119.9
					C240.9,14.3,242.3,13.4,243.7,12.4z"/>
			</g>
		</g>
	</g>
	<g>
		<path class="st3" d="M80.3,273.5l-9.6-25.3L67,254l-5.7-4.7l6.8-10.5l6.8-2.6L88,270.6L80.3,273.5z"/>
		<path class="st3" d="M112.5,241.6c0.7,1.9,1.4,4,1.8,6.2c0.5,2.2,0.7,4.4,0.5,6.4c-0.2,2.1-0.8,4-1.8,5.7c-1,1.7-2.7,3-5.1,3.9
			s-4.4,1-6.4,0.5c-1.9-0.6-3.6-1.6-5.1-3c-1.5-1.4-2.8-3.2-3.9-5.2c-1.1-2-2-4-2.7-5.9c-0.7-1.9-1.4-4-1.9-6.2
			c-0.5-2.2-0.7-4.4-0.5-6.4c0.2-2.1,0.8-4,1.8-5.7c1-1.7,2.7-3,5.1-3.9c2.3-0.9,4.4-1,6.4-0.5c1.9,0.6,3.6,1.6,5.1,3
			c1.5,1.5,2.8,3.2,3.9,5.2C110.8,237.7,111.8,239.6,112.5,241.6z M104.7,244.5c-0.4-1.1-0.9-2.3-1.5-3.6c-0.6-1.3-1.2-2.4-1.9-3.4
			c-0.7-1-1.4-1.8-2.1-2.3c-0.7-0.6-1.5-0.7-2.3-0.4s-1.3,0.9-1.4,1.8c-0.2,0.9-0.2,1.9,0,3.1c0.2,1.2,0.4,2.5,0.9,3.8
			c0.4,1.3,0.8,2.6,1.3,3.7c0.4,1.2,1,2.4,1.5,3.6c0.6,1.3,1.2,2.4,1.9,3.4c0.7,1,1.4,1.8,2.1,2.3c0.7,0.6,1.5,0.7,2.3,0.4
			c0.8-0.3,1.3-0.9,1.4-1.8c0.2-0.9,0.2-1.9,0-3.1c-0.2-1.2-0.4-2.4-0.8-3.8C105.6,246.9,105.2,245.7,104.7,244.5z"/>
		<path class="st3" d="M138,231.9c0.7,1.9,1.4,4,1.8,6.2c0.5,2.2,0.7,4.4,0.5,6.4c-0.2,2.1-0.8,4-1.8,5.7c-1,1.7-2.7,3-5.1,3.9
			c-2.3,0.9-4.4,1-6.4,0.5c-1.9-0.6-3.6-1.6-5.1-3c-1.5-1.4-2.8-3.2-3.9-5.2c-1.1-2-2-4-2.7-5.9c-0.7-1.9-1.4-4-1.9-6.2
			c-0.5-2.2-0.7-4.4-0.5-6.4c0.2-2.1,0.8-4,1.8-5.7c1-1.7,2.7-3,5.1-3.9c2.3-0.9,4.4-1,6.4-0.5c1.9,0.6,3.6,1.6,5.1,3
			c1.5,1.5,2.8,3.2,3.9,5.2C136.3,228,137.2,229.9,138,231.9z M130.2,234.8c-0.4-1.1-0.9-2.3-1.5-3.6c-0.6-1.3-1.2-2.4-1.9-3.4
			c-0.7-1-1.4-1.8-2.1-2.3c-0.7-0.6-1.5-0.7-2.3-0.4s-1.3,0.9-1.4,1.8c-0.2,0.9-0.2,1.9,0,3.1c0.2,1.2,0.4,2.5,0.9,3.8
			c0.4,1.3,0.8,2.6,1.3,3.7c0.4,1.2,1,2.4,1.5,3.6c0.6,1.3,1.2,2.4,1.9,3.4c0.7,1,1.4,1.8,2.1,2.3c0.7,0.6,1.5,0.7,2.3,0.4
			c0.8-0.3,1.3-0.9,1.4-1.8c0.2-0.9,0.2-1.9,0-3.1c-0.2-1.2-0.4-2.4-0.8-3.8C131.1,237.2,130.7,236,130.2,234.8z"/>
		<path class="st3" d="M151.2,217c0.5,1.3,0.8,2.6,0.9,3.8c0.1,1.2,0,2.4-0.3,3.4c-0.3,1-0.8,1.9-1.5,2.7c-0.7,0.8-1.6,1.4-2.7,1.8
			c-1.1,0.4-2.1,0.5-3.1,0.4c-1-0.1-2-0.5-2.9-1.1c-0.9-0.6-1.7-1.4-2.5-2.3c-0.7-1-1.4-2.1-1.9-3.5c-0.5-1.3-0.8-2.6-0.9-3.8
			c-0.1-1.2,0-2.4,0.3-3.4c0.3-1.1,0.8-2,1.5-2.7c0.7-0.8,1.6-1.4,2.6-1.8c1.1-0.4,2.2-0.6,3.2-0.4c1,0.1,2,0.5,2.9,1.1
			c0.9,0.6,1.7,1.4,2.5,2.4C150.1,214.5,150.7,215.7,151.2,217z M146.5,218.7c-0.5-1.4-1.1-2.4-1.8-3.2c-0.7-0.7-1.5-1-2.3-0.7
			c-0.7,0.3-1.1,0.9-1.2,2c0,1,0.2,2.2,0.7,3.6c0.5,1.3,1.1,2.3,1.8,3.1c0.7,0.8,1.5,1,2.2,0.7c0.8-0.3,1.2-1,1.2-2.1
			C147.3,221.2,147,220,146.5,218.7z M157.8,245.2l-4.1,0.1l1.2-41.1l4.1,0L157.8,245.2z M175.5,227.7c0.5,1.3,0.8,2.6,0.9,3.8
			c0.1,1.2,0,2.4-0.3,3.4c-0.3,1-0.8,1.9-1.5,2.7c-0.7,0.8-1.6,1.4-2.7,1.8c-1.1,0.4-2.1,0.5-3.1,0.4c-1-0.1-2-0.5-2.9-1.1
			c-0.9-0.6-1.7-1.4-2.5-2.3c-0.7-1-1.4-2.1-1.9-3.5c-0.5-1.3-0.8-2.6-0.9-3.9c-0.1-1.2,0-2.4,0.3-3.4c0.3-1,0.8-1.9,1.5-2.7
			c0.7-0.8,1.6-1.4,2.6-1.8c1.1-0.4,2.2-0.6,3.2-0.4c1,0.1,2,0.5,2.9,1.1c0.9,0.6,1.7,1.4,2.5,2.4
			C174.3,225.2,175,226.4,175.5,227.7z M170.7,229.5c-0.5-1.3-1.1-2.4-1.8-3.1c-0.7-0.8-1.5-1-2.3-0.7c-0.7,0.3-1.1,0.9-1.2,2
			c0,1,0.2,2.2,0.7,3.6c0.5,1.3,1.1,2.4,1.8,3.1c0.7,0.8,1.4,1,2.2,0.7c0.8-0.3,1.2-1,1.2-2C171.5,232,171.3,230.8,170.7,229.5z"/>
		<path class="st3" d="M204.5,226.3c-0.9,0.9-2,1.6-3.4,2.1c-1.6,0.6-3.2,0.8-4.7,0.6c-1.5-0.2-2.9-0.7-4.2-1.6
			c-1.3-0.9-2.5-2.1-3.5-3.5c-1.1-1.5-2-3.2-2.7-5.2c-0.8-2-1.2-3.9-1.4-5.7c-0.2-1.8-0.1-3.5,0.3-5c0.4-1.5,1.1-2.8,2.1-4
			c1-1.1,2.3-2,3.9-2.6c1.4-0.5,2.8-0.7,4-0.6c1.2,0.1,2.3,0.4,3.1,0.8l-0.8,7.1c-0.5-0.3-1-0.6-1.5-0.7c-0.5-0.1-1,0-1.6,0.1
			c-0.9,0.4-1.5,1.2-1.7,2.6c-0.2,1.4,0.1,3.1,0.9,5.1c0.8,2,1.7,3.5,2.7,4.4c1,0.9,2.1,1.1,3.2,0.7c0.6-0.2,1-0.5,1.3-1
			c0.3-0.4,0.5-0.9,0.6-1.5l5.3,4.7C206,224.4,205.4,225.4,204.5,226.3z"/>
		<path class="st3" d="M222.7,219.3l-1.4-3.6l-0.1,0c0,1.4-0.3,2.7-1,4c-0.7,1.3-1.9,2.2-3.5,2.8c-1.5,0.6-2.7,0.7-3.8,0.4
			c-1.1-0.3-2.1-0.8-3-1.6c-0.9-0.8-1.6-1.8-2.3-3.1c-0.7-1.2-1.2-2.5-1.8-3.9l-5.9-15.5l7.6-2.9l5.9,15.5c0.2,0.6,0.4,1.1,0.7,1.5
			c0.2,0.5,0.5,0.8,0.8,1.1c0.3,0.3,0.6,0.5,1,0.6c0.4,0.1,0.8,0.1,1.3-0.1c0.9-0.4,1.5-1.1,1.7-2.1c0.2-1.1,0-2.3-0.5-3.7
			l-5.7-14.9l7.6-2.9l9.7,25.4L222.7,219.3z"/>
		<path class="st3" d="M241.1,191.4c-0.8-0.4-1.6-0.6-2.4-0.7c-0.8-0.1-1.6,0-2.4,0.3c-0.6,0.2-1.1,0.6-1.4,1.2
			c-0.3,0.6-0.3,1.2,0,1.9c0.2,0.6,0.7,1,1.2,1.2c0.6,0.1,1.6,0.1,3,0c0.8-0.1,1.7,0,2.6,0.1c0.9,0.1,1.7,0.4,2.6,0.7
			c0.8,0.4,1.6,0.9,2.3,1.7c0.7,0.7,1.3,1.7,1.7,2.8c0.6,1.6,0.8,3,0.7,4.3c-0.1,1.3-0.5,2.5-1.1,3.5c-0.6,1-1.3,1.9-2.3,2.6
			c-0.9,0.7-1.9,1.3-2.8,1.6c-1.7,0.6-3.4,1-5.2,0.9c-1.8,0-3.5-0.4-5-1l1.9-6.3c1,0.5,1.9,0.8,2.9,0.9c1,0.2,1.9,0,2.9-0.3
			c0.7-0.3,1.2-0.7,1.4-1.3c0.2-0.6,0.2-1.2,0-1.9c-0.3-0.8-0.9-1.3-1.6-1.4c-0.8-0.1-1.9-0.2-3.4-0.1c-0.8,0-1.6,0-2.4-0.1
			c-0.8-0.1-1.6-0.3-2.3-0.7c-0.8-0.4-1.5-0.9-2.1-1.6c-0.7-0.7-1.2-1.6-1.7-2.8c-0.5-1.4-0.8-2.8-0.6-4c0.1-1.2,0.5-2.4,1-3.4
			c0.6-1,1.3-1.9,2.2-2.6c0.9-0.7,1.9-1.3,2.9-1.7c1.6-0.6,3.1-0.9,4.8-0.9c1.6,0,3.2,0.3,4.7,0.8L241.1,191.4z"/>
		<path class="st3" d="M265.7,203.4c-0.7,0.5-1.5,0.8-2.2,1.1c-2.6,1-4.7,1-6.4,0.1c-1.7-0.9-3.1-2.8-4.1-5.5l-4.5-11.8l-3.1,1.2
			l-2.3-5.9l3-1.1l-2.3-6.1l7.4-2.8l2.3,6.1l4.4-1.7l2.3,5.9l-4.4,1.7l3.9,10.1c0.5,1.2,1,2.1,1.6,2.5c0.6,0.4,1.3,0.5,2.2,0.2
			c0.7-0.3,1.2-0.6,1.6-1l2.3,6C266.9,202.5,266.4,202.9,265.7,203.4z"/>
		<path class="st3" d="M285.6,180.9c0.8,2,1.2,3.9,1.3,5.7c0.1,1.9,0,3.5-0.4,5.1c-0.4,1.5-1.2,2.9-2.2,4.1
			c-1.1,1.2-2.4,2.1-4.1,2.7c-1.7,0.6-3.3,0.8-4.8,0.7c-1.6-0.2-3-0.7-4.4-1.6c-1.4-0.8-2.6-2-3.7-3.5c-1.1-1.5-2.1-3.2-2.8-5.2
			c-0.8-2-1.2-3.9-1.4-5.8c-0.2-1.9,0-3.6,0.4-5.1c0.4-1.5,1.2-2.9,2.3-4.1c1.1-1.2,2.4-2.1,4.1-2.7c1.7-0.6,3.3-0.9,4.8-0.7
			c1.6,0.2,3,0.7,4.4,1.6c1.3,0.9,2.6,2,3.7,3.5C283.9,177.2,284.8,178.9,285.6,180.9z M278.3,183.6c-0.4-1-0.8-1.8-1.2-2.6
			c-0.4-0.8-0.9-1.4-1.4-2c-0.5-0.5-1-0.9-1.6-1.1c-0.5-0.2-1.1-0.2-1.7,0c-0.6,0.2-1,0.6-1.2,1.1c-0.3,0.5-0.4,1.1-0.4,1.9
			c0,0.7,0.1,1.5,0.2,2.4c0.2,0.9,0.5,1.8,0.8,2.8c0.4,1,0.8,1.8,1.2,2.6c0.4,0.8,0.9,1.4,1.4,2c0.5,0.5,1,0.9,1.6,1.1
			c0.5,0.2,1.1,0.2,1.6,0c0.6-0.2,1-0.6,1.3-1.1c0.3-0.5,0.4-1.1,0.4-1.9c0-0.7-0.1-1.5-0.2-2.4
			C278.9,185.5,278.7,184.6,278.3,183.6z"/>
		<path class="st3" d="M292.6,163.6l1.4,3.6l0.1,0c-0.1-1.4,0.1-2.7,0.8-4c0.7-1.3,1.9-2.2,3.5-2.8c1.8-0.7,3.3-0.8,4.6-0.2
			c1.2,0.5,2.3,1.4,3.1,2.5l0.1,0c0-0.7,0.1-1.3,0.3-2c0.2-0.7,0.4-1.3,0.8-1.9c0.4-0.6,0.9-1.2,1.5-1.7c0.6-0.5,1.3-1,2.2-1.3
			c1.5-0.6,2.8-0.7,3.9-0.5c1.1,0.3,2.1,0.8,3,1.6c0.9,0.8,1.6,1.8,2.3,3.1c0.7,1.2,1.3,2.5,1.8,3.9l5.9,15.5l-7.5,2.9l-5.9-15.6
			c-0.4-1.1-0.9-1.9-1.6-2.6c-0.6-0.7-1.4-0.9-2.3-0.5c-0.9,0.4-1.5,1.1-1.7,2.1c-0.2,1,0,2.3,0.5,3.7l5.7,15l-7.5,2.8l-5.9-15.6
			c-0.4-1.1-0.9-1.9-1.5-2.6c-0.6-0.7-1.4-0.9-2.3-0.5c-0.9,0.4-1.5,1.1-1.7,2.1c-0.2,1,0,2.3,0.5,3.7l5.7,15l-7.5,2.8l-9.7-25.4
			L292.6,163.6z"/>
		<path class="st3" d="M335.2,164.2c0.3,0.7,0.6,1.4,1,1.9c0.4,0.6,0.9,1,1.3,1.4c0.5,0.4,1,0.6,1.5,0.7c0.5,0.1,1,0.1,1.6-0.1
			c0.8-0.3,1.4-0.9,1.7-1.6c0.3-0.7,0.5-1.5,0.5-2.4l6.8,1c-0.1,2.2-0.7,4.1-1.8,5.8c-1.1,1.7-2.7,2.9-5,3.8c-1.5,0.6-3,0.8-4.5,0.7
			c-1.5-0.1-2.9-0.5-4.3-1.3c-1.4-0.8-2.7-1.9-3.8-3.4s-2.2-3.3-3-5.5c-0.8-2.1-1.3-4.1-1.4-5.9s0-3.6,0.5-5.1
			c0.5-1.5,1.2-2.9,2.2-4c1-1.1,2.3-2,3.8-2.6c1.7-0.7,3.4-0.9,4.9-0.7c1.5,0.2,2.9,0.8,4.1,1.6c1.2,0.9,2.4,2.1,3.3,3.6
			c1,1.5,1.8,3.2,2.6,5.2l0.8,2.1L335.2,164.2z M339.1,157c-0.5-1.4-1.2-2.4-1.9-3.2c-0.8-0.7-1.6-0.9-2.6-0.6
			c-0.5,0.2-0.9,0.5-1.2,1c-0.3,0.5-0.4,1-0.5,1.5c-0.1,0.6-0.1,1.2,0,1.8c0.1,0.6,0.2,1.2,0.4,1.7L339.1,157z"/>
		<path class="st3" d="M346.8,143l7.4-2.8l1.6,4.3l0,0c-0.4-3.7,0.7-6,3.2-7c0.3-0.1,0.5-0.2,0.6-0.2c0.2,0,0.4-0.1,0.6-0.1l2.4,7.8
			c-0.3,0-0.6,0.1-0.8,0.1c-0.3,0-0.6,0.1-0.9,0.3c-0.6,0.2-1.1,0.6-1.5,1.2c-0.4,0.5-0.6,1.1-0.7,1.8c-0.1,0.7-0.1,1.4,0,2.2
			c0.1,0.8,0.3,1.6,0.6,2.4l4.8,12.6l-7.6,2.9L346.8,143z"/>
		<path class="st3" d="M138.4,297.2c-0.8-0.4-1.6-0.6-2.4-0.7c-0.8-0.1-1.6,0-2.4,0.3c-0.6,0.2-1.1,0.6-1.4,1.2
			c-0.3,0.6-0.3,1.2,0,1.9c0.2,0.6,0.7,1,1.2,1.2c0.6,0.1,1.6,0.1,3,0c0.8-0.1,1.7,0,2.6,0.1c0.9,0.1,1.7,0.4,2.6,0.7
			c0.8,0.4,1.6,0.9,2.3,1.7c0.7,0.7,1.3,1.7,1.7,2.8c0.6,1.6,0.8,3,0.7,4.3c-0.1,1.3-0.5,2.5-1.1,3.5c-0.6,1-1.3,1.9-2.3,2.6
			c-0.9,0.7-1.9,1.3-2.8,1.6c-1.7,0.6-3.4,1-5.2,0.9c-1.8,0-3.5-0.4-5-1l1.9-6.3c1,0.5,1.9,0.8,2.9,0.9c1,0.2,1.9,0,2.9-0.3
			c0.7-0.3,1.2-0.7,1.4-1.3c0.2-0.6,0.2-1.2,0-1.9c-0.3-0.8-0.9-1.3-1.6-1.4c-0.8-0.1-1.9-0.2-3.4-0.1c-0.8,0-1.6,0-2.4-0.1
			c-0.8-0.1-1.6-0.3-2.3-0.7c-0.8-0.4-1.5-0.9-2.1-1.6c-0.7-0.7-1.2-1.6-1.7-2.8c-0.5-1.4-0.8-2.8-0.6-4c0.1-1.2,0.5-2.4,1-3.4
			c0.6-1,1.3-1.9,2.2-2.6c0.9-0.7,1.9-1.3,2.9-1.7c1.6-0.6,3.1-0.9,4.8-0.9c1.6,0,3.2,0.3,4.7,0.8L138.4,297.2z"/>
		<path class="st3" d="M162.2,305.4c0.1,1.3-0.2,2.4-0.9,3.5c-0.7,1.1-1.8,1.9-3.3,2.5c-0.7,0.3-1.6,0.4-2.4,0.5
			c-0.9,0-1.8-0.1-2.6-0.5c-0.9-0.4-1.7-0.9-2.5-1.8c-0.8-0.8-1.5-2-2-3.4c-0.7-1.7-0.9-3.3-0.7-4.7c0.2-1.4,0.7-2.6,1.4-3.7
			c0.8-1.1,1.7-2,2.9-2.8c1.2-0.8,2.4-1.4,3.8-1.9l1-0.4l-0.1-0.4c-0.5-1.2-1.1-2-1.9-2.3c-0.8-0.3-1.6-0.3-2.6,0s-1.7,0.9-2.3,1.6
			c-0.6,0.7-1.1,1.5-1.4,2.4l-5.1-3.4c0.6-1.6,1.5-3.1,2.8-4.3c1.3-1.3,2.7-2.2,4.2-2.8c1.7-0.7,3.3-0.9,4.7-0.9
			c1.4,0.1,2.7,0.5,3.8,1.2c1.1,0.7,2.1,1.7,3,3.1c0.9,1.3,1.7,2.9,2.4,4.8l5.5,14.5l-6.3,2.4L162.2,305.4L162.2,305.4z
			 M158.9,297.6l-1.4,0.5c-0.6,0.2-1.1,0.5-1.5,0.8c-0.5,0.3-0.9,0.7-1.1,1.1c-0.3,0.4-0.5,0.9-0.5,1.4c-0.1,0.5,0,1.1,0.3,1.8
			c0.4,1,0.9,1.7,1.5,2c0.6,0.3,1.2,0.3,1.8,0.1c0.6-0.2,1-0.6,1.4-1c0.3-0.5,0.5-1,0.6-1.5c0.1-0.6,0.1-1.2,0-1.8
			c-0.1-0.6-0.3-1.3-0.5-1.8L158.9,297.6z"/>
		<path class="st3" d="M185.1,300.8c-0.7,0.5-1.5,0.8-2.2,1.1c-2.6,1-4.7,1-6.4,0.1c-1.7-0.9-3.1-2.8-4.1-5.5l-4.5-11.8l-3.1,1.2
			l-2.3-5.9l3-1.1l-2.3-6.1l7.4-2.8l2.3,6.1l4.4-1.7l2.3,5.9l-4.4,1.7l3.9,10.1c0.5,1.2,1,2.1,1.6,2.5c0.6,0.4,1.3,0.5,2.2,0.2
			c0.7-0.3,1.2-0.6,1.6-1l2.3,6C186.3,299.9,185.8,300.3,185.1,300.8z"/>
		<path class="st3" d="M185.8,263.1c0.5,1.2,0.5,2.4,0,3.6c-0.5,1.2-1.3,2-2.5,2.4c-1.2,0.5-2.4,0.4-3.5-0.1
			c-1.1-0.6-1.9-1.5-2.4-2.7c-0.2-0.6-0.3-1.2-0.3-1.8c0-0.6,0.1-1.2,0.3-1.7c0.2-0.5,0.5-1,0.9-1.5c0.4-0.4,0.9-0.8,1.6-1
			c0.6-0.2,1.2-0.3,1.8-0.3c0.6,0,1.2,0.2,1.7,0.5c0.5,0.3,1,0.6,1.4,1.1C185.3,261.9,185.6,262.5,185.8,263.1z M190.1,298.4
			l-9.7-25.4l7.7-2.9l9.7,25.4L190.1,298.4z"/>
		<path class="st3" d="M208.6,270.5c-0.8-0.4-1.6-0.6-2.4-0.7c-0.8-0.1-1.6,0-2.4,0.3c-0.6,0.2-1.1,0.6-1.4,1.2
			c-0.3,0.6-0.3,1.2,0,1.8c0.2,0.6,0.7,1,1.2,1.2c0.6,0.1,1.6,0.1,3,0c0.8-0.1,1.7,0,2.6,0.1c0.9,0.1,1.7,0.4,2.6,0.7
			c0.8,0.4,1.6,0.9,2.3,1.7c0.7,0.7,1.3,1.7,1.7,2.8c0.6,1.6,0.8,3,0.7,4.3c-0.1,1.3-0.5,2.5-1.1,3.5c-0.6,1-1.3,1.9-2.3,2.6
			c-0.9,0.7-1.9,1.3-2.8,1.6c-1.7,0.6-3.4,1-5.2,0.9c-1.8,0-3.5-0.4-5-1l1.9-6.3c1,0.5,1.9,0.8,2.9,0.9c1,0.2,1.9,0,2.9-0.3
			c0.7-0.3,1.2-0.7,1.4-1.3c0.2-0.6,0.2-1.2,0-1.9c-0.3-0.8-0.9-1.3-1.6-1.4c-0.8-0.1-1.9-0.2-3.4-0.1c-0.8,0-1.6,0-2.4-0.1
			c-0.8-0.1-1.6-0.3-2.3-0.7c-0.8-0.4-1.5-0.9-2.1-1.6c-0.7-0.7-1.2-1.6-1.7-2.8c-0.5-1.4-0.8-2.8-0.6-4c0.1-1.2,0.5-2.4,1-3.4
			c0.6-1,1.3-1.9,2.2-2.6c0.9-0.7,1.9-1.3,2.9-1.7c1.6-0.6,3.1-0.9,4.8-0.9c1.6,0,3.2,0.3,4.7,0.8L208.6,270.5z"/>
		<path class="st3" d="M223.1,250c-0.5,0-1.1,0.1-1.6,0.3c-1.1,0.4-1.6,1.1-1.7,2.1c-0.1,1,0.1,2,0.5,3.1l0.8,2.1l3.9-1.5l2.3,5.9
			l-3.8,1.5l7.4,19.5l-7.4,2.8l-7.4-19.5l-3,1.1l-2.3-5.9l3-1.1l-0.8-2.1c-0.5-1.4-0.9-2.8-1.1-4.1c-0.2-1.4-0.1-2.6,0.2-3.9
			c0.3-1.2,0.9-2.3,1.9-3.3c0.9-1,2.2-1.8,3.9-2.5c0.5-0.2,1-0.3,1.6-0.5c0.6-0.2,1.2-0.3,1.7-0.3L223.1,250z"/>
		<path class="st3" d="M246.9,273.2c0.1,1.3-0.2,2.4-0.9,3.5c-0.7,1.1-1.8,1.9-3.3,2.5c-0.7,0.3-1.6,0.4-2.4,0.5
			c-0.9,0-1.7-0.1-2.6-0.5c-0.9-0.4-1.7-0.9-2.5-1.8c-0.8-0.8-1.5-2-2-3.4c-0.7-1.7-0.9-3.3-0.7-4.7c0.2-1.4,0.7-2.6,1.4-3.7
			c0.8-1.1,1.7-2,2.9-2.8c1.2-0.8,2.4-1.4,3.8-1.9l1-0.4l-0.1-0.4c-0.5-1.2-1.1-2-1.9-2.3c-0.8-0.3-1.6-0.3-2.6,0s-1.7,0.9-2.3,1.6
			c-0.6,0.7-1.1,1.5-1.4,2.3l-5.1-3.4c0.6-1.6,1.5-3.1,2.8-4.3c1.3-1.3,2.7-2.2,4.2-2.8c1.7-0.7,3.3-0.9,4.7-0.9
			c1.4,0.1,2.7,0.5,3.8,1.2c1.1,0.7,2.1,1.7,3,3.1c0.9,1.3,1.7,2.9,2.4,4.8l5.5,14.5l-6.3,2.4L246.9,273.2L246.9,273.2z
			 M243.6,265.4l-1.4,0.5c-0.5,0.2-1.1,0.5-1.5,0.8c-0.5,0.3-0.9,0.7-1.1,1.1c-0.3,0.4-0.5,0.9-0.5,1.4c-0.1,0.5,0,1.1,0.3,1.8
			c0.4,1,0.9,1.7,1.5,2c0.6,0.3,1.2,0.3,1.8,0.1c0.6-0.2,1-0.6,1.4-1c0.3-0.5,0.5-1,0.6-1.5c0.1-0.6,0.1-1.2,0-1.8
			c-0.1-0.6-0.3-1.3-0.5-1.8L243.6,265.4z"/>
		<path class="st3" d="M272.2,267.2c-0.9,0.9-2,1.6-3.4,2.1c-1.6,0.6-3.2,0.8-4.7,0.6c-1.5-0.2-2.9-0.7-4.2-1.6
			c-1.3-0.9-2.5-2.1-3.5-3.5c-1.1-1.5-2-3.2-2.7-5.2c-0.8-2-1.2-3.9-1.4-5.7c-0.2-1.8-0.1-3.5,0.3-5s1.1-2.8,2.1-4
			c1-1.1,2.3-2,3.9-2.6c1.4-0.5,2.8-0.7,4-0.6c1.2,0.1,2.3,0.4,3.1,0.8l-0.8,7.1c-0.5-0.3-1-0.6-1.5-0.7c-0.5-0.1-1,0-1.6,0.1
			c-0.9,0.4-1.5,1.2-1.7,2.6c-0.2,1.4,0.1,3.1,0.9,5.1c0.8,2,1.7,3.5,2.7,4.4c1,0.9,2.1,1.1,3.2,0.7c0.6-0.2,1-0.5,1.3-1
			c0.3-0.4,0.5-0.9,0.6-1.5l5.3,4.7C273.7,265.3,273.1,266.3,272.2,267.2z"/>
		<path class="st3" d="M287.8,261.7c-0.7,0.5-1.5,0.8-2.2,1.1c-2.6,1-4.7,1-6.4,0.1c-1.7-0.9-3.1-2.8-4.1-5.5l-4.5-11.8l-3.1,1.2
			l-2.3-5.9l3-1.1l-2.3-6.1l7.4-2.8l2.3,6.1l4.4-1.7l2.3,5.9l-4.4,1.7l3.9,10.1c0.5,1.2,1,2.1,1.6,2.5s1.3,0.5,2.2,0.2
			c0.7-0.3,1.2-0.6,1.6-1l2.3,6C289,260.8,288.5,261.2,287.8,261.7z"/>
		<path class="st3" d="M288.5,224c0.5,1.2,0.5,2.4,0,3.6c-0.5,1.2-1.3,2-2.5,2.4c-1.2,0.5-2.4,0.4-3.5-0.1c-1.1-0.6-1.9-1.5-2.4-2.7
			c-0.2-0.6-0.3-1.2-0.3-1.8c0-0.6,0.1-1.2,0.3-1.7c0.2-0.5,0.5-1,0.9-1.5c0.4-0.4,0.9-0.8,1.6-1c0.6-0.2,1.2-0.3,1.8-0.3
			c0.6,0,1.2,0.2,1.7,0.5c0.5,0.3,1,0.6,1.4,1.1C288,222.8,288.3,223.4,288.5,224z M292.8,259.3l-9.7-25.4l7.7-2.9l9.7,25.4
			L292.8,259.3z"/>
		<path class="st3" d="M321.1,234.1c0.8,2,1.2,3.9,1.3,5.7c0.1,1.9,0,3.5-0.4,5.1c-0.4,1.5-1.2,2.9-2.2,4.1
			c-1.1,1.2-2.4,2.1-4.1,2.7s-3.3,0.8-4.8,0.7c-1.6-0.2-3-0.7-4.4-1.6c-1.4-0.8-2.6-2-3.7-3.5s-2.1-3.2-2.8-5.2
			c-0.8-2-1.2-3.9-1.4-5.8c-0.2-1.9,0-3.6,0.4-5.1c0.5-1.5,1.2-2.9,2.3-4.1c1.1-1.2,2.4-2.1,4.1-2.7s3.3-0.9,4.8-0.7
			c1.6,0.2,3,0.7,4.4,1.6c1.3,0.9,2.6,2,3.7,3.5C319.4,230.4,320.3,232.1,321.1,234.1z M313.8,236.8c-0.4-1-0.8-1.8-1.2-2.6
			c-0.4-0.8-0.9-1.4-1.4-2c-0.5-0.5-1-0.9-1.6-1.1s-1.1-0.2-1.7,0c-0.6,0.2-1,0.6-1.2,1.1c-0.3,0.5-0.4,1.1-0.4,1.9
			c0,0.7,0.1,1.5,0.2,2.4c0.2,0.9,0.5,1.8,0.8,2.8c0.4,1,0.8,1.8,1.2,2.6c0.4,0.8,0.9,1.4,1.4,2c0.5,0.5,1,0.9,1.6,1.1
			c0.5,0.2,1.1,0.2,1.6,0c0.6-0.2,1-0.6,1.3-1.1c0.3-0.5,0.4-1.1,0.4-1.9c0-0.7-0.1-1.5-0.2-2.4
			C314.4,238.7,314.2,237.8,313.8,236.8z"/>
		<path class="st3" d="M328.1,216.8l1.4,3.6l0.1,0c0-1.4,0.3-2.7,1-4c0.7-1.3,1.9-2.2,3.5-2.8c1.5-0.6,2.7-0.7,3.8-0.4
			c1.1,0.3,2.1,0.8,3,1.6c0.9,0.8,1.6,1.8,2.3,3.1c0.7,1.2,1.2,2.5,1.8,3.9l5.9,15.5l-7.6,2.9l-5.9-15.6c-0.4-1.1-0.9-1.9-1.5-2.6
			c-0.6-0.7-1.4-0.9-2.3-0.5c-0.9,0.4-1.5,1.1-1.7,2.1c-0.2,1.1,0,2.3,0.5,3.7l5.7,15l-7.6,2.9l-9.7-25.4L328.1,216.8z"/>
		<path class="st3" d="M149.5,380.6c-1.4,1.1-3.1,2.1-5.2,2.9c-2.2,0.8-4.3,1.1-6.3,0.9c-2-0.2-3.9-0.9-5.7-2
			c-1.8-1.1-3.4-2.7-4.9-4.6c-1.5-2-2.7-4.3-3.7-7c-1-2.7-1.6-5.3-1.9-7.7c-0.2-2.5,0-4.7,0.5-6.8c0.6-2,1.5-3.8,2.8-5.3
			c1.3-1.5,3-2.6,5-3.4c2.3-0.9,4.4-1.2,6.3-1c1.9,0.2,3.5,0.7,4.8,1.6l-2.1,7.3c-1.8-1.2-3.7-1.4-5.7-0.6c-1.1,0.4-1.9,1-2.5,1.9
			c-0.6,0.9-0.9,1.9-1.1,3c-0.2,1.2-0.1,2.4,0.1,3.8c0.2,1.4,0.6,2.8,1.2,4.3c0.6,1.5,1.2,2.8,1.9,4c0.7,1.2,1.5,2.2,2.4,3
			c0.9,0.8,1.8,1.3,2.8,1.6c1,0.3,2,0.2,3.1-0.2c1.2-0.4,2-1,2.5-1.8l-2.4-6.4l-3.7,1.4l-2.6-6.7l10.5-4l7,18.3
			C151.9,378.3,150.8,379.4,149.5,380.6z"/>
		<path class="st3" d="M178,361.3c0.2,1.8,0.1,3.5-0.4,5.1c-0.5,1.6-1.3,3-2.5,4.3c-1.2,1.3-2.9,2.3-5,3.1c-2.1,0.8-4,1.1-5.7,1
			c-1.7-0.2-3.3-0.7-4.7-1.6c-1.4-0.9-2.6-2.1-3.6-3.6c-1-1.5-1.9-3.2-2.6-5.1l-8.2-21.7l7.8-3l8,21c0.4,1,0.8,1.9,1.2,2.7
			c0.4,0.8,0.9,1.4,1.4,1.9c0.5,0.5,1.1,0.8,1.7,1c0.6,0.2,1.3,0.1,2.1-0.2c0.8-0.3,1.3-0.7,1.7-1.3c0.4-0.5,0.6-1.2,0.6-1.9
			c0.1-0.7,0-1.5-0.2-2.4c-0.2-0.9-0.5-1.8-0.9-2.8l-8-21l7.8-3l8.2,21.7C177.3,357.6,177.8,359.4,178,361.3z"/>
		<path class="st3" d="M201.6,360.7l-3.8-5.7l-7.7,2.9l1,6.8l-7.8,3l-4.7-37.5l9.8-3.7l21.4,31.2L201.6,360.7z M186.3,335.8
			l-0.2,0.1l2.6,15.7l5.9-2.2L186.3,335.8z"/>
		<path class="st3" d="M227.1,351l-9.8-11.9l-2.3,0.9l5.2,13.7l-7.5,2.8l-13.1-34.4l11-4.2c3.3-1.3,6.2-1.4,8.7-0.4
			c2.5,1,4.4,3.3,5.7,6.7c0.5,1.3,0.8,2.5,0.9,3.6c0.1,1.1,0,2.1-0.2,3c-0.2,0.9-0.5,1.7-0.9,2.3c-0.4,0.7-0.8,1.2-1.3,1.6
			l11.7,13.1L227.1,351z M217.7,327.6c-0.3-0.9-0.7-1.5-1.2-2s-0.9-0.8-1.4-1c-0.5-0.2-1-0.2-1.5-0.2c-0.5,0.1-1,0.2-1.4,0.4
			l-2.4,0.9l3.3,8.7l2.3-0.9c1.1-0.4,1.9-1.1,2.5-2.1C218.3,330.4,218.3,329.1,217.7,327.6z"/>
		<path class="st3" d="M254.3,340.7l-3.8-5.7l-7.7,2.9l1,6.8l-7.8,3l-4.7-37.5l9.8-3.7l21.4,31.2L254.3,340.7z M238.9,315.7
			l-0.2,0.1l2.6,15.7l5.9-2.2L238.9,315.7z"/>
		<path class="st3" d="M280.2,330.8l-15.9-17.9l-0.1,0.1l8.2,20.8l-6.9,2.6l-13.1-34.4l8.5-3.3l16,18.2l0.1-0.1l-8.2-21.2l6.7-2.5
			l13.1,34.4L280.2,330.8z"/>
		<path class="st3" d="M294.9,293.4l10.6,27.8l-7.6,2.9l-10.6-27.8l-6.3,2.4l-2.5-6.6l20.2-7.7l2.5,6.6L294.9,293.4z"/>
		<path class="st3" d="M314.8,317.6l-13.1-34.4l16.6-6.3l2.6,6.8l-9.2,3.5l2.6,6.7l8.4-3.2l2.4,6.4l-8.4,3.2l2.8,7.4l9.8-3.7l2.7,7
			L314.8,317.6z"/>
		<path class="st3" d="M336.5,309.4L323.5,275l16.6-6.3l2.6,6.8l-9.2,3.5l2.6,6.7l8.4-3.2l2.4,6.4l-8.4,3.2l2.8,7.4l9.8-3.7l2.7,7
			L336.5,309.4z"/>
		<path class="st3" d="M375.7,274.9c1,2.6,1.6,5,1.8,7.4c0.2,2.3,0.1,4.4-0.5,6.4c-0.6,1.9-1.6,3.6-3.1,5.1
			c-1.5,1.5-3.5,2.7-5.9,3.6l-9.7,3.7l-13.1-34.4l9.7-3.7c2.5-0.9,4.7-1.3,6.8-1.2c2.1,0.1,4,0.7,5.8,1.8s3.3,2.5,4.7,4.4
			C373.5,270,374.7,272.3,375.7,274.9z M367.9,277.9c-1.3-3.5-2.9-5.9-4.8-7.2c-1.9-1.3-3.7-1.6-5.6-0.9l-1.9,0.7l7.9,20.8l1.9-0.7
			c1.9-0.7,3.1-2.2,3.6-4.4C369.6,284,369.2,281.2,367.9,277.9z"/>
		<path class="st3" d="M383.7,278.1l-8.6-22.7l7.5-2.9l8.6,22.7L383.7,278.1z M394.5,282.8c0.5,1.2,0.5,2.4,0,3.5
			c-0.4,1.1-1.3,1.9-2.5,2.4c-1.2,0.5-2.3,0.4-3.4-0.1c-1.1-0.6-1.9-1.4-2.3-2.7c-0.5-1.2-0.5-2.4,0-3.5c0.4-1.2,1.2-2,2.4-2.4
			c1.2-0.5,2.4-0.4,3.5,0.2C393.2,280.7,394,281.6,394.5,282.8z"/>
	</g>
</g>
</svg>
